<?xml version="1.0" standalone="no"?>
<!DOCTYPE svg PUBLIC "-//W3C//DTD SVG 20010904//EN"
 "http://www.w3.org/TR/2001/REC-SVG-20010904/DTD/svg10.dtd">
<svg version="1.0" xmlns="http://www.w3.org/2000/svg"
 width="500.000000pt" height="500.000000pt" viewBox="0 0 500.000000 500.000000"
 preserveAspectRatio="xMidYMid meet">
<metadata>
Created by potrace 1.14, written by Peter Selinger 2001-2017
</metadata>
<g transform="translate(0.000000,500.000000) scale(0.100000,-0.100000)"
fill="#000000" stroke="none">
<path d="M3528 4235 c-2 -1 -21 -5 -43 -8 -22 -3 -73 -13 -112 -21 -40 -9 -87
-18 -105 -21 -18 -4 -85 -17 -148 -30 -63 -13 -126 -26 -140 -29 -14 -2 -95
-18 -180 -36 -85 -18 -166 -34 -180 -36 -14 -2 -34 -5 -45 -8 -35 -8 -529
-108 -555 -113 -89 -15 -158 -37 -186 -58 -68 -52 -64 13 -64 -1082 0 -921 -1
-990 -18 -1022 -32 -64 -53 -72 -332 -127 -290 -58 -433 -204 -426 -435 2 -74
7 -96 34 -150 69 -141 188 -218 341 -224 95 -3 273 34 343 72 131 71 216 193
239 343 8 52 12 347 13 945 2 613 5 878 13 896 6 14 24 31 40 37 28 11 184 45
257 56 21 4 41 8 45 10 3 2 24 7 46 10 22 4 56 11 75 16 19 5 51 11 70 14 19
3 112 21 205 40 94 19 184 37 200 40 17 3 41 8 55 11 14 3 39 8 55 11 17 2 46
9 65 14 19 5 51 12 70 15 19 3 69 13 110 21 108 22 156 23 177 1 17 -17 18
-56 18 -640 l0 -622 -23 -33 c-32 -44 -82 -62 -247 -89 -81 -13 -227 -56 -283
-84 -249 -122 -299 -452 -96 -639 100 -92 231 -119 415 -86 239 44 380 175
419 389 10 52 13 363 12 1310 0 1344 2 1298 -51 1327 -21 11 -76 21 -83 15z"/>
</g>
</svg>
