<?xml version="1.0" standalone="no"?>
<!DOCTYPE svg PUBLIC "-//W3C//DTD SVG 1.1//EN" "http://www.w3.org/Graphics/SVG/1.1/DTD/svg11.dtd" >
<svg xmlns="http://www.w3.org/2000/svg" xmlns:xlink="http://www.w3.org/1999/xlink" version="1.1">
<metadata></metadata>
<defs>
<font id="sf_pro_textlight_italic" horiz-adv-x="1321" >
<font-face units-per-em="2048" ascent="1638" descent="-410" />
<missing-glyph horiz-adv-x="554" />
<glyph horiz-adv-x="0" />
<glyph unicode="&#xd;" horiz-adv-x="0" />
<glyph unicode=" "  horiz-adv-x="554" />
<glyph unicode="&#x09;" horiz-adv-x="554" />
<glyph unicode="&#xa0;" horiz-adv-x="554" />
<glyph unicode="!" horiz-adv-x="616" d="M161 98q0 49 31.5 81t80.5 32t80 -32t31 -81q0 -48 -31.5 -80t-79.5 -32q-49 0 -80.5 32t-31.5 80zM283 457l198 987h152l-221 -987h-129z" />
<glyph unicode="&#x22;" horiz-adv-x="801" d="M314 935l109 508h123l-108 -508h-124zM647 935l109 508h123l-109 -508h-123z" />
<glyph unicode="#" horiz-adv-x="1316" d="M106 419l34 111h251l128 395h-259l36 110h259l137 410h111l-135 -410h359l137 410h112l-137 -410h267l-35 -110h-268l-130 -395h277l-35 -111h-278l-139 -419h-111l138 419h-360l-139 -419h-111l139 419h-248zM500 528h362l130 398h-362z" />
<glyph unicode="$" d="M172 384h139q10 -107 84.5 -181t194.5 -99l125 589l-37 15q-157 64 -234.5 153.5t-77.5 211.5q0 174 136.5 287t354.5 113h23l27 126h104l-30 -139q151 -34 247.5 -138t101.5 -239h-138q-13 95 -75.5 161t-161.5 91l-117 -547l40 -17q162 -68 242.5 -158t80.5 -219 q0 -191 -142.5 -308t-366.5 -117q-19 0 -28 1l-26 -123h-103l29 135q-166 34 -275.5 143.5t-116.5 258.5zM510 1080q0 -85 55.5 -142.5t177.5 -109.5l111 520h-15q-144 0 -236.5 -76.5t-92.5 -191.5zM690 93h13q162 0 258 80t96 207q0 95 -59.5 158t-187.5 116z" />
<glyph unicode="%" horiz-adv-x="1610" d="M150 0l709 746l662 697h146l-719 -756l-651 -687h-147zM278 1071q0 163 99.5 278t240.5 115q117 0 189 -79.5t72 -209.5q0 -162 -100 -278t-240 -116q-118 0 -189.5 79.5t-71.5 210.5zM400 1070q0 -85 39.5 -136.5t106.5 -51.5q86 0 148.5 88t62.5 208q0 85 -39 135 t-106 50q-86 0 -149 -87t-63 -206zM938 269q0 163 99.5 278t240.5 115q117 0 189 -79.5t72 -209.5q0 -162 -100 -278t-240 -116q-118 0 -189.5 79.5t-71.5 210.5zM1059 268q0 -85 40 -136.5t107 -51.5q86 0 148.5 88t62.5 208q0 85 -39 135t-106 50q-86 0 -149.5 -87 t-63.5 -206z" />
<glyph unicode="&#x26;" horiz-adv-x="1472" d="M126 361q0 280 371 428l84 34q-68 99 -98.5 171.5t-30.5 136.5q0 141 113 240.5t278 99.5q145 0 239.5 -78.5t94.5 -197.5q0 -272 -414 -419l318 -464q144 162 169 384l9 65h128l-9 -71q-32 -274 -227 -481l141 -209h-161l-83 124q-196 -148 -454 -148q-196 0 -332 111.5 t-136 273.5zM263 373q0 -122 93 -201.5t243 -79.5q100 0 201.5 32.5t182.5 97.5l-342 508l-82 -33q-145 -56 -220.5 -139t-75.5 -185zM583 1129q0 -52 28 -113t93 -152q172 57 257 140.5t85 176.5q0 81 -58 130t-152 49q-104 0 -178.5 -68t-74.5 -163z" />
<glyph unicode="'" horiz-adv-x="469" d="M314 935l109 508h123l-108 -508h-124z" />
<glyph unicode="(" horiz-adv-x="751" d="M310 352q0 325 129.5 632t341.5 522h148q-227 -232 -356.5 -537t-129.5 -623q0 -385 104 -650h-120q-54 112 -85.5 294t-31.5 362z" />
<glyph unicode=")" horiz-adv-x="751" d="M-37 -304q227 232 357 537t130 623q0 385 -104 650h120q54 -113 85.5 -295t31.5 -361q0 -325 -129.5 -632t-342.5 -522h-148z" />
<glyph unicode="*" horiz-adv-x="1037" d="M314 967l296 117l-239 167l70 84l224 -187l50 305l102 -8l-72 -304l290 139l32 -93l-295 -118l238 -167l-69 -85l-225 186l-49 -303l-102 8l72 303l-290 -138z" />
<glyph unicode="+" d="M214 523l25 114h441l95 448h117l-95 -448h443l-26 -114h-441l-97 -456h-117l97 456h-442z" />
<glyph unicode="," horiz-adv-x="593" d="M12 -349l211 532h146l-257 -532h-100z" />
<glyph unicode="-" horiz-adv-x="975" d="M213 520l26 124h656l-26 -124h-656z" />
<glyph unicode="." horiz-adv-x="593" d="M134 97q0 44 31 75t75 31t74.5 -31t30.5 -75t-30.5 -74.5t-74.5 -30.5t-75 30.5t-31 74.5z" />
<glyph unicode="/" horiz-adv-x="719" d="M-73 -304l890 1810h117l-891 -1810h-116z" />
<glyph unicode="0" horiz-adv-x="1282" d="M204 488q0 204 52.5 387.5t140.5 314t209 207t253 76.5q191 0 307.5 -143.5t116.5 -377.5q0 -205 -52 -388t-139.5 -313t-208 -205.5t-253.5 -75.5q-193 0 -309.5 142.5t-116.5 375.5zM341 493q0 -186 79.5 -294t219.5 -108q134 0 251 116t186.5 314t69.5 427 q0 185 -79.5 294t-217.5 109q-135 0 -252.5 -116.5t-187 -314.5t-69.5 -427z" />
<glyph unicode="1" horiz-adv-x="913" d="M273 1019l35 157q11 6 112 67.5t203 123t130 76.5h136l-307 -1443h-136l271 1276h-13q-21 -11 -213 -126.5t-218 -130.5z" />
<glyph unicode="2" horiz-adv-x="1222" d="M103 0l23 107l620 544q208 183 272.5 268.5t64.5 179.5q0 109 -83 181.5t-208 72.5q-131 0 -226.5 -78.5t-118.5 -205.5h-135q25 179 161 291.5t328 112.5q179 0 300.5 -103.5t121.5 -256.5q0 -123 -82.5 -237t-326.5 -326l-476 -414l-3 -12h748l-26 -124h-954z" />
<glyph unicode="3" horiz-adv-x="1260" d="M161 345q0 24 4 46h132q-2 -18 -2 -27q0 -119 98 -196.5t249 -77.5q175 0 282.5 91.5t107.5 240.5q0 118 -94 190.5t-246 72.5h-156l25 119h205q146 0 246.5 86t100.5 213q0 110 -82.5 179.5t-213.5 69.5q-115 0 -208 -66t-127 -172h-135q40 162 171.5 260.5t310.5 98.5 q183 0 304.5 -101t121.5 -253q0 -144 -95 -246t-251 -128l-3 -12q127 -25 196.5 -104t69.5 -199q0 -202 -151 -331t-387 -129q-199 0 -335.5 108.5t-137.5 266.5z" />
<glyph unicode="4" horiz-adv-x="1312" d="M132 326l21 129q296 371 869 990h206l-212 -996h216l-26 -123h-216l-69 -326h-134l69 326h-724zM302 448h581l183 864h-9q-426 -451 -753 -855z" />
<glyph unicode="5" horiz-adv-x="1256" d="M179 351q0 19 1 24h136l-1 -7q0 -120 93 -198.5t240 -78.5q176 0 288.5 118t112.5 299q0 139 -90.5 225t-232.5 86q-98 0 -187 -42.5t-144 -111.5h-137l242 778h782l-27 -123h-667l-154 -506l12 -1q59 59 141 90.5t171 31.5q182 0 306.5 -116.5t124.5 -292.5 q0 -159 -67 -285t-192 -198.5t-287 -72.5q-196 0 -330 110.5t-134 270.5z" />
<glyph unicode="6" horiz-adv-x="1288" d="M196 481q0 105 18 216.5t53.5 223.5t93.5 210.5t131.5 175.5t174 121.5t214.5 44.5q184 0 307 -108t130 -275h-142q-8 118 -91.5 189t-216.5 71q-184 0 -319 -166.5t-195 -469.5l12 -1q68 109 179.5 171.5t242.5 62.5q188 0 310 -115.5t122 -293.5q0 -158 -73.5 -288.5 t-201.5 -205t-283 -74.5q-208 0 -337 137t-129 374zM339 415q0 -143 92 -232.5t240 -89.5q171 0 289 124t118 304q0 135 -90 221.5t-231 86.5q-172 0 -295 -120.5t-123 -293.5z" />
<glyph unicode="7" horiz-adv-x="1161" d="M172 0l947 1308l2 12h-774l27 123h919l-28 -128l-940 -1315h-153z" />
<glyph unicode="8" horiz-adv-x="1294" d="M154 349q0 169 114.5 288t287.5 136l3 12q-92 37 -145 110.5t-53 162.5q0 176 139 295.5t351 119.5q187 0 311.5 -98.5t124.5 -243.5t-93.5 -247.5t-241.5 -128.5l-3 -12q114 -39 180 -122.5t66 -190.5q0 -199 -153 -329.5t-394 -130.5q-220 0 -357 107t-137 272z M296 369q0 -129 96 -204.5t263 -75.5q177 0 289 96t112 243q0 121 -101.5 197.5t-260.5 76.5q-173 0 -285.5 -95t-112.5 -238zM495 1052q0 -105 84.5 -171t224.5 -66q148 0 246 84.5t98 214.5q0 108 -84 174t-223 66q-153 0 -249.5 -86.5t-96.5 -215.5z" />
<glyph unicode="9" horiz-adv-x="1289" d="M164 352h141q8 -118 92.5 -188.5t216.5 -70.5q184 0 319 166.5t195 469.5l-13 1q-67 -110 -178.5 -172t-242.5 -62q-186 0 -309 119t-123 298q0 239 158 399.5t397 160.5q213 0 341 -138.5t128 -370.5q0 -105 -18 -216t-53 -223.5t-92.5 -211.5t-131 -176t-174.5 -122 t-216 -45q-185 0 -307.5 107t-129.5 275zM404 930q0 -136 90.5 -226t230.5 -90q173 0 295.5 121.5t122.5 293.5q0 143 -93.5 232t-241.5 89q-173 0 -288.5 -121t-115.5 -299z" />
<glyph unicode=":" horiz-adv-x="593" d="M134 97q0 44 31 75t75 31t74.5 -31t30.5 -75t-30.5 -74.5t-74.5 -30.5t-75 30.5t-31 74.5zM298 878q0 44 31 74.5t75 30.5t75 -30.5t31 -74.5t-31 -75t-75 -31t-75 31t-31 75z" />
<glyph unicode=";" horiz-adv-x="593" d="M12 -349l211 532h146l-257 -532h-100zM298 878q0 44 31 74.5t75 30.5t75 -30.5t31 -74.5t-31 -75t-75 -31t-75 31t-31 75z" />
<glyph unicode="&#x3c;" d="M282 548l23 109l978 478l-31 -145l-826 -396l-2 -12l640 -476l-30 -141z" />
<glyph unicode="=" d="M177 331l24 115h995l-24 -115h-995zM258 714l24 115h995l-24 -115h-995z" />
<glyph unicode="&#x3e;" d="M158 -35l31 145l825 396l3 12l-640 476l30 141l752 -583l-23 -109z" />
<glyph unicode="?" horiz-adv-x="1020" d="M258 1102q35 164 152 260t296 96q174 0 283.5 -95t109.5 -233q0 -128 -78.5 -231t-212.5 -159q-107 -45 -156 -96.5t-66 -135.5l-15 -78h-136l20 94q26 118 85 183t180 116q234 102 234 293q0 94 -68.5 158t-189.5 64q-112 0 -193 -63t-113 -173h-132zM328 98 q0 49 31.5 81t80.5 32t80.5 -32t31.5 -81t-31.5 -80.5t-80.5 -31.5t-80.5 31.5t-31.5 80.5z" />
<glyph unicode="@" horiz-adv-x="1871" d="M223 497q0 200 70.5 374.5t193.5 298.5t296.5 195t371.5 71q213 0 383 -84t265.5 -233.5t95.5 -337.5q0 -176 -60 -323t-164.5 -231.5t-229.5 -84.5q-91 0 -150.5 47t-59.5 120q0 9 2 23l-13 1q-43 -74 -112 -115t-153 -41q-139 0 -222.5 91t-83.5 241q0 211 121.5 359.5 t293.5 148.5q94 0 165 -51.5t85 -130.5h13l31 147h121l-128 -593q-6 -26 -6 -46q0 -49 31.5 -75.5t90.5 -26.5q83 0 157 74.5t118.5 198.5t44.5 262q0 248 -180.5 404.5t-466.5 156.5q-226 0 -412.5 -109t-293.5 -298.5t-107 -419.5q0 -295 199 -473t528 -178q132 0 204 22 l-21 -99q-96 -22 -217 -22q-234 0 -416.5 93t-283.5 260.5t-101 383.5zM778 518q0 -107 55.5 -170t149.5 -63q124 0 213.5 113.5t89.5 271.5q0 109 -56 173.5t-151 64.5q-125 0 -213 -114t-88 -276z" />
<glyph unicode="A" horiz-adv-x="1363" d="M19 0l850 1443h129l233 -1443h-134l-67 443h-609l-254 -443h-148zM488 560h526l-110 702h-12z" />
<glyph unicode="B" horiz-adv-x="1323" d="M128 0l307 1443h480q182 0 290.5 -86t108.5 -225q0 -144 -91 -247t-241 -129l-3 -13q123 -20 195 -98t72 -194q0 -195 -152.5 -323t-393.5 -128h-572zM292 121h405q175 0 289.5 92t114.5 227q0 119 -85 183.5t-246 64.5h-357zM438 807h347q170 0 279 83t109 214 q0 104 -78 161t-228 57h-320z" />
<glyph unicode="C" horiz-adv-x="1461" d="M209 567q0 192 57.5 360t157 288t239 189t297.5 69q234 0 387.5 -133.5t153.5 -331.5q0 -13 -1 -18h-138q1 4 1 15q-8 150 -121.5 245.5t-291.5 95.5q-166 0 -303.5 -101t-217 -276.5t-79.5 -386.5q0 -226 115.5 -355.5t316.5 -129.5q159 0 282 77.5t167 204.5h144 q-55 -189 -218 -299t-390 -110q-254 0 -406 162t-152 435z" />
<glyph unicode="D" horiz-adv-x="1476" d="M129 0l306 1443h413q286 0 447 -162t161 -445q0 -177 -60 -332.5t-163 -266t-247.5 -174t-307.5 -63.5h-549zM294 122h389q179 0 323.5 91.5t226.5 253.5t82 362q0 230 -127 361t-351 131h-288z" />
<glyph unicode="E" horiz-adv-x="1196" d="M128 0l307 1443h872l-26 -124h-733l-111 -519h696l-26 -122h-696l-118 -554h733l-26 -124h-872z" />
<glyph unicode="F" horiz-adv-x="1153" d="M128 0l307 1443h857l-26 -124h-718l-116 -542h660l-27 -122h-659l-138 -655h-140z" />
<glyph unicode="G" horiz-adv-x="1505" d="M210 576q0 254 97 459.5t268 321.5t383 116q224 0 375 -124t161 -314v-28h-138q-8 150 -119.5 244.5t-287.5 94.5q-166 0 -303 -99.5t-215.5 -273t-78.5 -383.5q0 -230 119 -361.5t326 -131.5q187 0 321 114.5t172 307.5l16 81h-435l26 121h574l-40 -192 q-55 -270 -224.5 -414.5t-427.5 -144.5t-413.5 165.5t-155.5 440.5z" />
<glyph unicode="H" horiz-adv-x="1489" d="M128 0l307 1443h139l-137 -642h842l136 642h140l-307 -1443h-140l144 677h-841l-145 -677h-138z" />
<glyph unicode="I" horiz-adv-x="508" d="M128 0l307 1443h139l-307 -1443h-139z" />
<glyph unicode="J" horiz-adv-x="1091" d="M108 323v7h138v-6q2 -103 70.5 -164.5t181.5 -61.5q116 0 191.5 74t105.5 216l224 1055h136l-230 -1090q-39 -183 -153.5 -283t-290.5 -100q-168 0 -274 100q-99 95 -99 234v19z" />
<glyph unicode="K" horiz-adv-x="1311" d="M128 0l307 1443h136l-158 -743h12l832 743h180l-706 -631l459 -812h-159l-407 728l-251 -221l-109 -507h-136z" />
<glyph unicode="L" horiz-adv-x="1139" d="M128 0l307 1443h139l-281 -1319h721l-26 -124h-860z" />
<glyph unicode="M" horiz-adv-x="1762" d="M128 0l307 1443h150l266 -1256h13l796 1256h168l-307 -1443h-131l250 1177h-10l-745 -1170h-118l-249 1170h-9l-250 -1177h-131z" />
<glyph unicode="N" horiz-adv-x="1492" d="M128 0l307 1443h134l579 -1218h13l259 1218h138l-307 -1443h-133l-581 1220h-12l-259 -1220h-138z" />
<glyph unicode="O" horiz-adv-x="1564" d="M209 574q0 189 58.5 356t160 286t243.5 188t304 69q252 0 412 -169t160 -435q0 -254 -99 -460t-273.5 -322.5t-390.5 -116.5q-253 0 -414 169.5t-161 434.5zM352 585q0 -220 121.5 -354t320.5 -134q172 0 311.5 99t218.5 273.5t79 388.5q0 220 -120.5 354t-317.5 134 q-171 0 -311.5 -100t-221 -274.5t-80.5 -386.5z" />
<glyph unicode="P" horiz-adv-x="1279" d="M128 0l309 1443h477q181 0 297.5 -104.5t116.5 -272.5q0 -237 -158.5 -379.5t-404.5 -142.5h-383l-115 -544h-139zM408 666h349q194 0 311.5 104t117.5 284q0 123 -85 195t-232 72h-319z" />
<glyph unicode="Q" horiz-adv-x="1570" d="M207 564q0 190 58.5 358.5t160.5 289.5t246 191t308 70q253 0 414 -167.5t161 -427.5q0 -265 -107.5 -479t-293.5 -327l124 -241h-147l-95 184q-116 -45 -252 -45q-167 0 -299 76t-205 211.5t-73 306.5zM350 577q0 -216 122 -348t322 -132q94 0 182 32l-138 266h149 l107 -207q148 97 233 276.5t85 401.5q0 215 -121.5 347.5t-320.5 132.5q-130 0 -245.5 -60t-197.5 -162.5t-129.5 -244.5t-47.5 -302z" />
<glyph unicode="R" horiz-adv-x="1311" d="M128 0l308 1443h474q195 0 308.5 -100.5t113.5 -273.5t-110 -298t-293 -159l219 -612h-149l-206 591h-12h-387l-127 -591h-139zM420 714h375q175 0 284 95t109 247q0 124 -75 194.5t-207 70.5h-357z" />
<glyph unicode="S" horiz-adv-x="1267" d="M126 392h139q18 -133 129.5 -215t275.5 -82q165 0 266.5 79t101.5 209q0 93 -62 159t-201 115l-136 48q-157 55 -237.5 148.5t-80.5 216.5q0 174 140.5 288.5t353.5 114.5q202 0 341.5 -112t154.5 -286h-137q-23 125 -123 199t-245 74q-149 0 -245.5 -75.5t-96.5 -191.5 q0 -86 61.5 -149t195.5 -111l133 -47q329 -119 329 -376q0 -190 -145.5 -309t-377.5 -119q-222 0 -367.5 115t-166.5 307z" />
<glyph unicode="T" horiz-adv-x="1275" d="M310 1319l25 124h1104l-26 -124h-482l-280 -1319h-140l281 1319h-482z" />
<glyph unicode="U" horiz-adv-x="1499" d="M235 414q0 67 13 132l190 897h139l-188 -890q-13 -67 -13 -124v-8q4 -152 102 -236.5t276 -84.5q174 0 300 103.5t164 283.5l205 956h139l-209 -981q-50 -233 -210 -360.5t-412 -127.5q-232 0 -363 122.5t-133 317.5z" />
<glyph unicode="V" horiz-adv-x="1363" d="M324 1443h130l202 -1259h12l720 1259h151l-846 -1443h-135z" />
<glyph unicode="W" horiz-adv-x="1958" d="M345 1443h127l68 -1230h10l608 1230h123l100 -1230h9l581 1230h142l-699 -1443h-133l-102 1206h-10l-600 -1206h-133z" />
<glyph unicode="X" horiz-adv-x="1367" d="M39 0l663 744l-337 699h156l282 -609h11l551 609h158l-659 -726l344 -717h-148l-295 618h-11l-558 -618h-157z" />
<glyph unicode="Y" d="M325 1443h143l289 -685h12l568 685h159l-695 -837l-127 -606h-139l133 624z" />
<glyph unicode="Z" horiz-adv-x="1328" d="M82 0l21 99l1110 1208l3 13h-826l26 123h1011l-21 -100l-1108 -1207l-2 -13h863l-26 -123h-1051z" />
<glyph unicode="[" horiz-adv-x="751" d="M126 -304l385 1810h427l-22 -106h-299l-341 -1599h300l-23 -105h-427z" />
<glyph unicode="\" horiz-adv-x="719" d="M349 1506h112l50 -1810h-110z" />
<glyph unicode="]" horiz-adv-x="751" d="M-44 -300l22 106h301l339 1595h-301l22 105h430l-384 -1806h-429z" />
<glyph unicode="^" horiz-adv-x="947" d="M218 794l431 625h140l165 -625h-126l-127 511h-11l-344 -511h-128z" />
<glyph unicode="_" horiz-adv-x="919" d="M-112 -222l21 100h935l-21 -100h-935z" />
<glyph unicode="`" horiz-adv-x="1000" d="M576 1594h162l181 -327h-143z" />
<glyph unicode="a" horiz-adv-x="1126" d="M116 273q0 155 119.5 246t339.5 101l337 16l18 81q7 36 7 64q0 92 -67.5 144t-186.5 52q-106 0 -181.5 -45t-100.5 -122h-138q32 129 150 207t280 78q172 0 274.5 -80.5t102.5 -216.5q0 -44 -9 -89l-151 -709h-127l35 165h-13q-57 -84 -153.5 -133.5t-204.5 -49.5 q-143 0 -237 83t-94 208zM250 286q0 -83 65.5 -136t169.5 -53q135 0 240.5 80.5t132.5 202.5l32 149l-321 -17q-152 -8 -235.5 -67.5t-83.5 -158.5z" />
<glyph unicode="b" horiz-adv-x="1257" d="M121 0l320 1506h131l-129 -613h12q65 97 160 149.5t211 52.5q167 0 276.5 -117.5t109.5 -300.5q0 -190 -72 -349.5t-198.5 -252.5t-279.5 -93q-127 0 -226 73.5t-124 188.5h-13l-53 -244h-125zM353 430q0 -151 81.5 -240t219.5 -89q118 0 215 75t152 202.5t55 279.5 q0 149 -78 234t-213 85q-96 0 -178.5 -47t-137 -124.5t-85.5 -175.5t-31 -200z" />
<glyph unicode="c" horiz-adv-x="1143" d="M165 428q0 189 73.5 341.5t203.5 239t291 86.5q155 0 266.5 -81t136.5 -209q4 -23 6 -45h-134q-11 95 -91 156t-195 61q-178 0 -298.5 -153t-120.5 -378q0 -160 81 -252t221 -92q111 0 194.5 50t116.5 138h137q-35 -139 -161.5 -223.5t-298.5 -84.5q-193 0 -310.5 122 t-117.5 324z" />
<glyph unicode="d" horiz-adv-x="1265" d="M163 416q0 141 44 267t118.5 216.5t177.5 143t217 52.5q130 0 225 -72.5t118 -188.5h12l143 672h133l-320 -1506h-127l39 185h-12q-63 -94 -163.5 -148.5t-213.5 -54.5q-168 0 -279.5 120.5t-111.5 313.5zM299 436q0 -149 81.5 -242t213.5 -93q121 0 221 74t156 199 t56 273q0 151 -80.5 240.5t-217.5 89.5q-88 0 -167 -42t-137 -114t-92 -172.5t-34 -212.5z" />
<glyph unicode="e" horiz-adv-x="1179" d="M165 424q0 294 159 482.5t402 188.5q173 0 289 -117.5t117 -310.5q0 -82 -15 -154h-811q-5 -43 -5 -78q0 -162 87.5 -247.5t217.5 -85.5q228 0 309 162h140q-39 -126 -161 -204t-297 -78q-189 0 -310.5 118.5t-121.5 323.5zM324 621h667q4 16 4 60q0 127 -76 212.5 t-205 85.5q-138 0 -243.5 -98.5t-146.5 -259.5z" />
<glyph unicode="f" horiz-adv-x="722" d="M187 0l202 966h-180l23 111h180l25 124q29 151 112.5 221.5t229.5 70.5q53 0 109 -13l-23 -110q-42 11 -98 11q-160 0 -197 -184l-24 -120h258l-24 -111h-257l-202 -966h-134z" />
<glyph unicode="g" horiz-adv-x="1247" d="M86 -117h139q15 -75 95 -123.5t202 -48.5q146 0 239.5 72t123.5 202l51 225h-12q-61 -97 -154.5 -148t-208.5 -51q-172 0 -282.5 119.5t-110.5 310.5q0 185 71.5 335t195.5 234.5t276 84.5q129 0 226.5 -72.5t123.5 -187.5h12l49 233l128 -1l-238 -1107 q-37 -171 -168.5 -267t-333.5 -96q-174 0 -292.5 83t-131.5 203zM304 460q0 -156 79 -244.5t216 -88.5q182 0 301 149t119 373q0 152 -81.5 240t-218.5 88q-178 0 -296.5 -147t-118.5 -370z" />
<glyph unicode="h" horiz-adv-x="1215" d="M121 0l321 1506h133l-130 -611h12q130 200 349 200q155 0 249 -94t94 -232q0 -53 -12 -116l-140 -653h-133l134 630q13 63 13 104q0 110 -68 176.5t-189 66.5q-136 0 -232.5 -89t-126.5 -226l-141 -662h-133z" />
<glyph unicode="i" horiz-adv-x="489" d="M122 0l229 1077h131l-229 -1077h-131zM391 1415q0 40 29 68.5t69 28.5t68.5 -28.5t28.5 -68.5t-28.5 -69t-68.5 -29q-41 0 -69.5 28.5t-28.5 69.5z" />
<glyph unicode="j" horiz-adv-x="490" d="M-158 -362l27 117q23 -5 50 -5q80 0 124 40t64 134l245 1153h131l-248 -1170q-31 -143 -108.5 -208.5t-211.5 -65.5q-46 0 -73 5zM388 1415q0 40 29 68.5t69 28.5t68.5 -28.5t28.5 -68.5t-28.5 -69t-68.5 -29t-69 28.5t-29 69.5z" />
<glyph unicode="k" horiz-adv-x="1074" d="M121 0l320 1506h132l-194 -912h12l616 483h177l-583 -464l378 -613h-154l-330 539l-151 -112l-91 -427h-132z" />
<glyph unicode="l" horiz-adv-x="489" d="M121 0l320 1506h133l-320 -1506h-133z" />
<glyph unicode="m" horiz-adv-x="1777" d="M111 0l229 1077h127l-39 -182h13q47 91 130 145.5t181 54.5q118 0 198 -65.5t94 -157.5h12q49 94 140 158.5t214 64.5q134 0 220 -83.5t86 -212.5q0 -57 -13 -125l-144 -674h-133l139 651q13 63 13 113q0 92 -58.5 152.5t-159.5 60.5q-113 0 -199.5 -84t-115.5 -221 l-143 -672h-134l139 651q13 63 13 113q0 92 -58.5 152.5t-158.5 60.5q-111 0 -198.5 -82.5t-115.5 -212.5l-145 -682h-133z" />
<glyph unicode="n" horiz-adv-x="1198" d="M111 0l229 1077h127l-39 -183h12q131 201 354 201q153 0 246 -93.5t93 -229.5q0 -58 -13 -119l-139 -653h-133l134 630q13 63 13 107q0 108 -67.5 174t-185.5 66q-134 0 -231 -89t-126 -226l-141 -662h-133z" />
<glyph unicode="o" horiz-adv-x="1218" d="M166 428q0 191 72.5 343.5t201.5 238t291 85.5q195 0 315.5 -122.5t120.5 -321.5q0 -190 -73 -343t-202 -239.5t-289 -86.5q-196 0 -316.5 123t-120.5 323zM304 442q0 -155 86 -248t229 -93q112 0 206 69.5t148.5 189.5t54.5 263q0 164 -83 259t-226 95 q-182 0 -298.5 -150t-116.5 -385z" />
<glyph unicode="p" horiz-adv-x="1251" d="M38 -357l305 1434h127l-39 -184h12q62 94 163.5 148t214.5 54q167 0 276 -117.5t109 -300.5q0 -189 -73 -349t-200 -253t-280 -93q-130 0 -224.5 72.5t-117.5 189.5h-12l-129 -601h-132zM347 430q0 -152 80.5 -240.5t217.5 -88.5q117 0 215 75t153.5 202.5t55.5 279.5 q0 149 -77 234t-211 85q-122 0 -223 -77t-156 -202t-55 -268z" />
<glyph unicode="q" horiz-adv-x="1252" d="M162 411q0 186 73 343t200.5 249t280.5 92q128 0 225.5 -73.5t122.5 -188.5h13l52 244h128l-305 -1434h-132l114 542h-12q-65 -98 -162.5 -150.5t-213.5 -52.5q-166 0 -275 120.5t-109 308.5zM298 431q0 -154 77 -242t212 -88q123 0 223.5 74t157 199t56.5 273 q0 151 -81.5 240.5t-218.5 89.5q-117 0 -215.5 -73.5t-154.5 -199t-56 -273.5z" />
<glyph unicode="r" horiz-adv-x="774" d="M105 0l229 1077h127l-33 -157h12q108 175 301 175q85 0 133 -18l-29 -126q-57 17 -137 17q-128 0 -213.5 -81t-117.5 -232l-139 -655h-133z" />
<glyph unicode="s" horiz-adv-x="1050" d="M110 281h136q19 -84 95.5 -135.5t188.5 -51.5q121 0 199.5 55t78.5 141q0 59 -39.5 101t-130.5 74l-144 48q-127 42 -187 108t-60 165q0 135 111 222t280 87q162 0 267.5 -78t123.5 -206h-130q-15 77 -87.5 124.5t-176.5 47.5q-110 0 -183 -53t-73 -132q0 -57 42.5 -98.5 t131.5 -71.5l129 -43q138 -46 199.5 -114t61.5 -172q0 -138 -118.5 -227.5t-300.5 -89.5q-172 0 -287 83t-127 216z" />
<glyph unicode="t" horiz-adv-x="724" d="M203 966l24 111h181l58 280h133l-59 -280h253l-24 -111h-252l-137 -642q-11 -50 -11 -91q0 -123 148 -123q56 0 80 3l-24 -112q-29 -7 -100 -7q-112 0 -178.5 52t-66.5 150q0 38 11 93l145 677h-181z" />
<glyph unicode="u" horiz-adv-x="1196" d="M182 298q0 64 14 129l137 650h133l-133 -629q-14 -68 -14 -118q0 -111 62.5 -170t180.5 -59q138 0 238 90.5t130 231.5l140 654h132l-229 -1077h-126l38 173h-12q-54 -87 -146 -139t-213 -52q-149 0 -240.5 89.5t-91.5 226.5z" />
<glyph unicode="v" horiz-adv-x="1078" d="M240 1077h132l140 -912h12l513 912h147l-627 -1077h-145z" />
<glyph unicode="w" horiz-adv-x="1567" d="M239 1077h122l58 -908h12l452 908h138l71 -914h12l434 914h135l-537 -1077h-139l-80 890h-12l-451 -890h-138z" />
<glyph unicode="x" horiz-adv-x="1049" d="M17 0l495 546l-268 531h143l209 -432h12l382 432h158l-493 -539l267 -538h-138l-213 436h-12l-384 -436h-158z" />
<glyph unicode="y" horiz-adv-x="1079" d="M43 -369l23 110q42 -11 87 -11q61 0 111 42.5t108 145.5l45 81l-178 1078h131l142 -913h12l516 913h144l-696 -1202q-86 -149 -161.5 -203t-181.5 -54q-53 0 -102 13z" />
<glyph unicode="z" horiz-adv-x="1082" d="M75 0l21 100l821 854l4 12h-640l25 111h816l-23 -101l-818 -853l-4 -12h640l-24 -111h-818z" />
<glyph unicode="{" horiz-adv-x="751" d="M141 523l34 157q120 0 179 45.5t84 164.5l66 304q37 171 127 241.5t256 70.5h50l-23 -109h-44q-110 0 -164.5 -51.5t-81.5 -179.5l-69 -322q-25 -117 -91 -171t-182 -65l-3 -17q94 -17 136.5 -56t42.5 -113q0 -33 -12 -93l-58 -276q-12 -60 -12 -99q0 -153 162 -153h38 l-22 -105h-42q-52 0 -97 12t-84 38t-61.5 73.5t-22.5 112.5q0 53 13 112l55 262q11 55 11 89q0 73 -43.5 99.5t-141.5 28.5z" />
<glyph unicode="|" horiz-adv-x="719" d="M182 -304l384 1810h114l-385 -1810h-113z" />
<glyph unicode="}" horiz-adv-x="751" d="M-45 -304l24 109h44q109 0 164 51t82 179l69 323q25 117 91 171t182 65l3 16q-95 17 -137 56.5t-42 113.5q0 33 12 93l58 276q12 60 12 99q0 152 -162 152h-38l22 106h42q52 0 97 -12t84 -38t61.5 -74t22.5 -113q0 -51 -13 -112l-55 -261q-11 -55 -11 -89 q0 -73 43.5 -99.5t141.5 -28.5l-34 -157q-120 0 -179 -45.5t-85 -164.5l-65 -305q-37 -170 -127.5 -240.5t-255.5 -70.5h-51z" />
<glyph unicode="~" horiz-adv-x="1204" d="M127 569q17 144 97 228t190 84q52 0 97 -24t76.5 -57.5t59.5 -67.5t60 -58t64 -24q121 0 154 187h130q-18 -145 -97 -228t-189 -83q-53 0 -98 24t-77 58t-60.5 67.5t-60 57.5t-63.5 24q-121 0 -153 -188h-130z" />
<glyph unicode="&#xa1;" horiz-adv-x="616" d="M105 -339l221 986h128l-198 -986h-151zM353 1006q0 48 31.5 80t79.5 32q49 0 80.5 -32t31.5 -80t-31.5 -80t-80.5 -32q-48 0 -79.5 32t-31.5 80z" />
<glyph unicode="&#xa2;" d="M289 612q0 184 70 334.5t195 238.5t280 94l36 167h131l-39 -180q117 -24 197 -98t101 -179q4 -30 5 -45h-133q-11 95 -91.5 156t-195.5 61q-117 0 -213.5 -70t-151 -192t-54.5 -269q0 -160 81.5 -253.5t220.5 -93.5q111 0 194.5 50t117.5 138h136q-34 -134 -152 -217.5 t-281 -90.5q-3 0 -44 -192h-131l44 204q-149 32 -236 148.5t-87 288.5z" />
<glyph unicode="&#xa3;" d="M86 0l25 116q75 13 146 50t130 93.5t94.5 138t35.5 174.5q0 36 -5 93h-299l24 112h263q-17 177 -17 214q0 229 136 357t400 128q90 0 186 -19.5t160 -53.5l-24 -123q-57 33 -148 53.5t-179 20.5q-181 0 -284 -89t-103 -252q0 -57 17 -236h438l-23 -112h-407q0 -2 1.5 -31 t1.5 -42q0 -179 -81 -298t-218 -164l-2 -12h821l-26 -118h-1063z" />
<glyph unicode="&#xa4;" d="M155 260l236 196q-56 94 -56 200q0 149 102 261l-110 139l95 76l110 -140q88 50 189 50q149 0 260 -101l235 195l67 -86l-233 -192q57 -93 57 -202q0 -151 -104 -263l108 -137l-95 -75l-108 138q-89 -49 -187 -49q-148 0 -260 102l-238 -197zM435 656q0 -117 86.5 -201.5 t199.5 -84.5q118 0 202 84t84 202t-84 202t-202 84t-202 -84t-84 -202z" />
<glyph unicode="&#xa5;" d="M295 310l23 105h305l39 184h-305l22 106h261l-315 738h143l291 -678h12l566 678h159l-619 -738h247l-22 -106h-302l-39 -184h302l-23 -105h-301l-64 -310h-140l65 310h-305z" />
<glyph unicode="&#xa6;" horiz-adv-x="719" d="M182 -304l146 688h113l-146 -688h-113zM415 793l151 713h114l-152 -713h-113z" />
<glyph unicode="&#xa7;" horiz-adv-x="1037" d="M60 49h135q17 -83 90.5 -135t180.5 -52q116 0 190 55t74 141q0 59 -37.5 101.5t-126.5 75.5l-129 48q-241 88 -241 275q0 110 80 188t203 97l3 14q-83 45 -120 100t-37 133q0 135 107 220t271 85q156 0 258 -79t119 -205h-130q-14 76 -83.5 124t-167.5 48 q-104 0 -172.5 -52.5t-68.5 -132.5q0 -58 40 -98.5t127 -72.5l115 -43q131 -49 192.5 -114t61.5 -166q0 -108 -75 -189.5t-198 -106.5l-3 -9q79 -49 113 -103.5t34 -131.5q0 -137 -114.5 -225.5t-290.5 -88.5q-164 0 -277.5 84t-122.5 215zM329 575q0 -115 167 -177l112 -43 q112 14 181.5 75.5t69.5 150.5q0 61 -37 106t-125 77l-96 35q-116 -6 -194 -70t-78 -154z" />
<glyph unicode="&#xa8;" horiz-adv-x="1000" d="M447 1354q0 43 29.5 72.5t72.5 29.5q42 0 72 -29.5t30 -72.5t-30 -72.5t-72 -29.5q-43 0 -72.5 29.5t-29.5 72.5zM810 1354q0 43 30 72.5t72 29.5q43 0 72.5 -29.5t29.5 -72.5t-29.5 -72.5t-72.5 -29.5q-42 0 -72 29.5t-30 72.5z" />
<glyph unicode="&#xa9;" horiz-adv-x="1742" d="M176 549q0 180 66.5 340t181.5 275t275 181.5t340 66.5q207 0 374 -91.5t261 -253.5t94 -363q0 -180 -66.5 -340.5t-181.5 -275.5t-275 -181.5t-340 -66.5q-204 0 -371 93t-262.5 255.5t-95.5 360.5zM288 562q0 -130 47.5 -244t130.5 -195t200 -127.5t250 -46.5 q152 0 289 58.5t235.5 157.5t157 236.5t58.5 290.5q0 176 -80.5 315.5t-224 217.5t-324.5 78q-151 0 -288 -58.5t-236 -157.5t-157 -236t-58 -289zM589 567q0 211 123 352t307 141q137 0 224.5 -74.5t95.5 -197.5h-103q-6 79 -69.5 129.5t-155.5 50.5q-134 0 -225 -111.5 t-91 -277.5q0 -127 64 -201.5t173 -74.5q83 0 145 37.5t89 104.5h106q-30 -107 -125 -171t-222 -64q-152 0 -244 98t-92 259z" />
<glyph unicode="&#xaa;" horiz-adv-x="943" d="M202 781q0 129 99.5 203.5t283.5 82.5l270 13l14 65q7 37 6 50q0 73 -53.5 114t-147.5 41q-84 0 -143.5 -35t-79.5 -96h-129q27 109 126 174.5t236 65.5q145 0 231.5 -67.5t86.5 -180.5q0 -41 -7 -73l-125 -585h-123l29 134h-11q-45 -67 -123.5 -106.5t-167.5 -39.5 q-117 0 -194.5 68.5t-77.5 171.5zM330 795q0 -66 52 -107.5t134 -41.5q107 0 190 62.5t104 158.5l25 117l-254 -13q-120 -6 -185.5 -52t-65.5 -124z" />
<glyph unicode="&#xab;" horiz-adv-x="1362" d="M238 563l1 6l447 414h170l-457 -426l-2 -13l259 -395h-147zM688 563l2 6l447 414h170l-457 -426l-3 -13l260 -395h-148z" />
<glyph unicode="&#xac;" d="M247 563l24 114h953l-113 -532h-114l89 418h-839z" />
<glyph unicode="&#xad;" horiz-adv-x="975" d="M213 520l26 124h656l-26 -124h-656z" />
<glyph unicode="&#xae;" horiz-adv-x="1261" d="M265 969q0 144 68.5 264t188 188.5t262.5 68.5q215 0 363.5 -147.5t148.5 -361.5q0 -144 -68 -264t-187 -189t-263 -69q-141 0 -259 67.5t-186 185t-68 257.5zM349 969q0 -179 123.5 -302.5t303.5 -123.5q184 0 310 126.5t126 311.5q0 179 -123.5 302t-304.5 123 q-184 0 -309.5 -126t-125.5 -311zM526 733l111 516h220q67 0 111.5 -41t44.5 -100q0 -68 -43 -114t-113 -57l101 -204h-89l-97 195h-124l-42 -195h-80zM663 998h133q60 0 93.5 25.5t33.5 73.5q0 35 -24 56.5t-67 21.5h-132z" />
<glyph unicode="&#xaf;" horiz-adv-x="1018" d="M403 1292l22 106h648l-23 -106h-647z" />
<glyph unicode="&#xb0;" horiz-adv-x="859" d="M318 1161q0 126 86 214t215 88q128 0 214.5 -88t86.5 -214t-86.5 -213.5t-214.5 -87.5q-129 0 -215 87.5t-86 213.5zM419 1161q0 -84 56 -142t144 -58t144.5 58.5t56.5 141.5q0 84 -57 142t-144 58t-143.5 -58t-56.5 -142z" />
<glyph unicode="&#xb1;" d="M126 112l24 114h1002l-24 -114h-1002zM245 671l23 105h442l66 309h118l-66 -309h442l-23 -105h-442l-67 -317h-118l67 317h-442z" />
<glyph unicode="&#xb2;" horiz-adv-x="821" d="M249 902l21 97l361 304q131 109 171.5 160t40.5 105q0 59 -44.5 98t-113.5 39q-71 0 -123.5 -43.5t-65.5 -114.5v-2h-124q13 117 103.5 191.5t219.5 74.5q120 0 200 -66t80 -165q0 -79 -53 -149t-212 -201l-249 -211l-2 -8h430l-23 -109h-617z" />
<glyph unicode="&#xb3;" horiz-adv-x="834" d="M280 1158h125q-6 -72 47 -120t140 -48q92 0 149.5 49t57.5 128q0 64 -50 103.5t-131 39.5h-97l20 100h121q83 0 137.5 45t54.5 114q0 61 -45 98.5t-117 37.5q-64 0 -114 -35.5t-69 -93.5h-124q25 107 111.5 171t205.5 64q122 0 202 -64t80 -162q0 -87 -59.5 -150.5 t-154.5 -77.5l-1 -8q77 -16 119 -65.5t42 -123.5q0 -122 -96 -200.5t-245 -78.5q-148 0 -237 79.5t-72 197.5z" />
<glyph unicode="&#xb4;" horiz-adv-x="1000" d="M503 1267l320 327h169l-339 -327h-150z" />
<glyph unicode="&#xb6;" horiz-adv-x="1316" d="M383 955q0 143 73.5 255t201 172.5t287.5 60.5h172l-348 -1638h-137l164 769q-183 6 -298 112.5t-115 268.5zM928 -195l348 1638h137l-349 -1638h-136z" />
<glyph unicode="&#xb7;" horiz-adv-x="630" d="M303 738q0 46 33 79.5t79 33.5t79 -33t33 -80q0 -46 -33 -79t-79 -33t-79 33t-33 79z" />
<glyph unicode="&#xb8;" horiz-adv-x="1000" d="M161 -443l18 87q27 -13 71 -22.5t80 -9.5q54 0 87 23.5t33 63.5q0 39 -35.5 62t-100.5 25l-52 1l11 72l112 173l108 -2l-108 -169q88 -9 134 -48.5t46 -106.5q0 -82 -65.5 -134t-167.5 -52q-97 0 -171 37z" />
<glyph unicode="&#xb9;" horiz-adv-x="634" d="M341 1501l28 131q15 8 79.5 47t123 73.5t67.5 39.5h132l-190 -890h-132l159 752h-8q-11 -5 -259 -153z" />
<glyph unicode="&#xba;" horiz-adv-x="1032" d="M249 925q0 227 138.5 381t342.5 154q168 0 265.5 -104.5t97.5 -285.5q0 -149 -63 -272.5t-173.5 -194.5t-242.5 -71q-168 0 -266.5 106.5t-98.5 286.5zM383 941q0 -138 65 -216.5t178 -78.5q140 0 236.5 119.5t96.5 293.5q0 134 -65.5 211t-178.5 77q-141 0 -236.5 -117 t-95.5 -289z" />
<glyph unicode="&#xbb;" horiz-adv-x="1364" d="M182 149l457 426l2 12l-259 396h147l271 -414l-1 -6l-447 -414h-170zM635 149l456 426l3 12l-260 396h148l271 -414l-2 -6l-447 -414h-169z" />
<glyph unicode="&#xbc;" horiz-adv-x="1960" d="M328 1152l28 131q15 8 79.5 47t123 73.5t67.5 39.5h132l-190 -890h-132l159 752h-8q-11 -5 -259 -153zM501 0l491 751l452 692h134l-471 -721l-472 -722h-134zM1165 182l21 119q170 218 510 589h192l-127 -599h125l-23 -109h-126l-38 -183h-127l39 183h-446zM1312 287 h324l104 496h-7q-234 -253 -420 -488z" />
<glyph unicode="&#xbd;" horiz-adv-x="1990" d="M328 1152l28 131q15 8 79.5 47t123 73.5t67.5 39.5h132l-190 -890h-132l159 752h-8q-11 -5 -259 -153zM501 0l491 751l452 692h134l-471 -721l-472 -722h-134zM1247 0l21 97l361 304q131 109 171.5 160t40.5 105q0 59 -44.5 98t-113.5 39q-71 0 -123.5 -43.5 t-65.5 -114.5v-2h-124q13 117 103.5 191.5t219.5 74.5q120 0 200 -66t80 -165q0 -79 -53 -149t-212 -201l-249 -211l-2 -8h430l-23 -109h-617z" />
<glyph unicode="&#xbe;" horiz-adv-x="2104" d="M205 809h125q-6 -72 47 -120t140 -48q92 0 149.5 49t57.5 128q0 64 -50 103.5t-131 39.5h-97l20 100h121q83 0 137.5 45t54.5 114q0 61 -45 98.5t-117 37.5q-64 0 -114 -35.5t-69 -93.5h-124q25 107 111.5 171t205.5 64q122 0 202 -64t80 -162q0 -87 -59.5 -150.5 t-154.5 -77.5l-1 -8q77 -16 119 -65.5t42 -123.5q0 -122 -96 -200.5t-245 -78.5q-148 0 -237 79.5t-72 197.5zM645 0l491 751l452 692h134l-471 -721l-472 -722h-134zM1309 182l21 119q170 218 510 589h192l-127 -599h125l-23 -109h-126l-38 -183h-127l39 183h-446z M1456 287h324l104 496h-7q-234 -253 -420 -488z" />
<glyph unicode="&#xbf;" horiz-adv-x="1019" d="M41 -26q0 128 78.5 231t212.5 159q107 45 156 96.5t66 135.5l15 78h136l-20 -94q-26 -118 -85.5 -183t-179.5 -116q-235 -103 -235 -293q0 -94 69 -158t189 -64q113 0 194 63t113 173h132q-35 -165 -151.5 -260.5t-296.5 -95.5q-174 0 -283.5 95t-109.5 233zM588 1006 q0 49 31.5 80.5t80.5 31.5t80.5 -31.5t31.5 -80.5t-31.5 -81t-80.5 -32t-80.5 31.5t-31.5 81.5z" />
<glyph unicode="&#xc0;" horiz-adv-x="1363" d="M19 0l850 1443h129l233 -1443h-134l-67 443h-609l-254 -443h-148zM488 560h526l-110 702h-12zM680 1874h157l184 -297h-141z" />
<glyph unicode="&#xc1;" horiz-adv-x="1363" d="M19 0l850 1443h129l233 -1443h-134l-67 443h-609l-254 -443h-148zM488 560h526l-110 702h-12zM885 1577l373 297h175l-389 -297h-159z" />
<glyph unicode="&#xc2;" horiz-adv-x="1363" d="M19 0l850 1443h129l233 -1443h-134l-67 443h-609l-254 -443h-148zM488 560h526l-110 702h-12zM626 1577l315 297h151l189 -297h-143l-126 208h-12l-214 -208h-160z" />
<glyph unicode="&#xc3;" horiz-adv-x="1363" d="M19 0l850 1443h129l233 -1443h-134l-67 443h-609l-254 -443h-148zM488 560h526l-110 702h-12zM612 1616q15 115 80 181t156 66q46 0 82.5 -19.5t60 -46.5t44.5 -54.5t46 -47t53 -19.5q93 0 121 142h110q-17 -117 -81 -181.5t-155 -64.5q-46 0 -83 19t-60.5 46.5t-44.5 55 t-45.5 46.5t-52.5 19q-94 0 -121 -142h-110z" />
<glyph unicode="&#xc4;" horiz-adv-x="1363" d="M19 0l850 1443h129l233 -1443h-134l-67 443h-609l-254 -443h-148zM488 560h526l-110 702h-12zM697 1670q0 43 29.5 72.5t72.5 29.5q42 0 72 -29.5t30 -72.5t-30 -72.5t-72 -29.5q-43 0 -72.5 29.5t-29.5 72.5zM1060 1670q0 43 30 72.5t72 29.5q43 0 72.5 -29.5 t29.5 -72.5t-29.5 -72.5t-72.5 -29.5q-42 0 -72 29.5t-30 72.5z" />
<glyph unicode="&#xc5;" horiz-adv-x="1363" d="M19 0l850 1443h129l233 -1443h-134l-67 443h-609l-254 -443h-148zM488 560h526l-110 702h-12zM791 1774q0 88 62 149t151 61t151 -61t62 -149q0 -89 -62 -150t-151 -61t-151 61t-62 150zM879 1774q0 -53 36 -89.5t89 -36.5t89 36.5t36 89.5t-36 89t-89 36t-89 -36 t-36 -89z" />
<glyph unicode="&#xc6;" horiz-adv-x="1955" d="M17 0l985 1443h1067l-26 -124h-675l-112 -526h638l-26 -122h-638l-117 -547h675l-26 -124h-811l94 443h-580l-303 -443h-145zM543 561h527l163 766h-162z" />
<glyph unicode="&#xc7;" horiz-adv-x="1464" d="M209 567q0 192 57.5 360t157 288t239 189t297.5 69q234 0 387.5 -133.5t153.5 -331.5q0 -13 -1 -18h-138q1 4 1 15q-8 150 -121.5 245.5t-291.5 95.5q-166 0 -303.5 -101t-217 -276.5t-79.5 -386.5q0 -226 115.5 -355.5t316.5 -129.5q159 0 282 77.5t167 204.5h144 q-52 -180 -202 -288.5t-362 -119.5l-70 -110q88 -9 134 -48.5t46 -106.5q0 -82 -65.5 -134t-167.5 -52q-97 0 -171 37l18 87q27 -13 71 -22.5t80 -9.5q54 0 87 23.5t33 63.5q0 39 -35.5 62t-100.5 25l-52 1l11 72l74 114q-227 21 -360.5 180.5t-133.5 413.5z" />
<glyph unicode="&#xc8;" horiz-adv-x="1196" d="M128 0l307 1443h872l-26 -124h-733l-111 -519h696l-26 -122h-696l-118 -554h733l-26 -124h-872zM618 1874h157l184 -297h-141z" />
<glyph unicode="&#xc9;" horiz-adv-x="1196" d="M128 0l307 1443h872l-26 -124h-733l-111 -519h696l-26 -122h-696l-118 -554h733l-26 -124h-872zM823 1577l373 297h175l-389 -297h-159z" />
<glyph unicode="&#xca;" horiz-adv-x="1196" d="M128 0l307 1443h872l-26 -124h-733l-111 -519h696l-26 -122h-696l-118 -554h733l-26 -124h-872zM573 1577l315 297h151l189 -297h-143l-126 208h-12l-214 -208h-160z" />
<glyph unicode="&#xcb;" horiz-adv-x="1196" d="M128 0l307 1443h872l-26 -124h-733l-111 -519h696l-26 -122h-696l-118 -554h733l-26 -124h-872zM635 1670q0 43 29.5 72.5t72.5 29.5q42 0 72 -29.5t30 -72.5t-30 -72.5t-72 -29.5q-43 0 -72.5 29.5t-29.5 72.5zM998 1670q0 43 30 72.5t72 29.5q43 0 72.5 -29.5 t29.5 -72.5t-29.5 -72.5t-72.5 -29.5q-42 0 -72 29.5t-30 72.5z" />
<glyph unicode="&#xcc;" horiz-adv-x="508" d="M128 0l307 1443h139l-307 -1443h-139zM252 1874h157l184 -297h-141z" />
<glyph unicode="&#xcd;" horiz-adv-x="508" d="M128 0l307 1443h139l-307 -1443h-139zM457 1577l373 297h175l-389 -297h-159z" />
<glyph unicode="&#xce;" horiz-adv-x="508" d="M128 0l307 1443h139l-307 -1443h-139zM207 1577l315 297h151l189 -297h-143l-126 208h-12l-214 -208h-160z" />
<glyph unicode="&#xcf;" horiz-adv-x="508" d="M128 0l307 1443h139l-307 -1443h-139zM269 1670q0 43 29.5 72.5t72.5 29.5q42 0 72 -29.5t30 -72.5t-30 -72.5t-72 -29.5q-43 0 -72.5 29.5t-29.5 72.5zM632 1670q0 43 30 72.5t72 29.5q43 0 72.5 -29.5t29.5 -72.5t-29.5 -72.5t-72.5 -29.5q-42 0 -72 29.5t-30 72.5z " />
<glyph unicode="&#xd0;" horiz-adv-x="1476" d="M92 681l26 124h182l135 638h413q286 0 447 -162t161 -445q0 -177 -60 -332.5t-163 -266t-247.5 -174t-307.5 -63.5h-549l144 681h-181zM294 122h389q179 0 323.5 91.5t226.5 253.5t82 362q0 230 -127 361t-351 131h-288l-110 -516h251l-27 -124h-250z" />
<glyph unicode="&#xd1;" horiz-adv-x="1492" d="M128 0l307 1443h134l579 -1218h13l259 1218h138l-307 -1443h-133l-581 1220h-12l-259 -1220h-138zM682 1616q15 115 80 181t156 66q46 0 82.5 -19.5t60 -46.5t44.5 -54.5t46 -47t53 -19.5q93 0 121 142h110q-17 -117 -81 -181.5t-155 -64.5q-46 0 -83 19t-60.5 46.5 t-44.5 55t-45.5 46.5t-52.5 19q-94 0 -121 -142h-110z" />
<glyph unicode="&#xd2;" horiz-adv-x="1564" d="M209 574q0 189 58.5 356t160 286t243.5 188t304 69q252 0 412 -169t160 -435q0 -254 -99 -460t-273.5 -322.5t-390.5 -116.5q-253 0 -414 169.5t-161 434.5zM352 585q0 -220 121.5 -354t320.5 -134q172 0 311.5 99t218.5 273.5t79 388.5q0 220 -120.5 354t-317.5 134 q-171 0 -311.5 -100t-221 -274.5t-80.5 -386.5zM716 1873h157l184 -297h-141z" />
<glyph unicode="&#xd3;" horiz-adv-x="1564" d="M209 574q0 189 58.5 356t160 286t243.5 188t304 69q252 0 412 -169t160 -435q0 -254 -99 -460t-273.5 -322.5t-390.5 -116.5q-253 0 -414 169.5t-161 434.5zM352 585q0 -220 121.5 -354t320.5 -134q172 0 311.5 99t218.5 273.5t79 388.5q0 220 -120.5 354t-317.5 134 q-171 0 -311.5 -100t-221 -274.5t-80.5 -386.5zM921 1576l373 297h175l-389 -297h-159z" />
<glyph unicode="&#xd4;" horiz-adv-x="1564" d="M209 574q0 189 58.5 356t160 286t243.5 188t304 69q252 0 412 -169t160 -435q0 -254 -99 -460t-273.5 -322.5t-390.5 -116.5q-253 0 -414 169.5t-161 434.5zM352 585q0 -220 121.5 -354t320.5 -134q172 0 311.5 99t218.5 273.5t79 388.5q0 220 -120.5 354t-317.5 134 q-171 0 -311.5 -100t-221 -274.5t-80.5 -386.5zM671 1576l315 297h151l189 -297h-143l-126 208h-12l-214 -208h-160z" />
<glyph unicode="&#xd5;" horiz-adv-x="1564" d="M209 574q0 189 58.5 356t160 286t243.5 188t304 69q252 0 412 -169t160 -435q0 -254 -99 -460t-273.5 -322.5t-390.5 -116.5q-253 0 -414 169.5t-161 434.5zM352 585q0 -220 121.5 -354t320.5 -134q172 0 311.5 99t218.5 273.5t79 388.5q0 220 -120.5 354t-317.5 134 q-171 0 -311.5 -100t-221 -274.5t-80.5 -386.5zM648 1615q15 115 80 181t156 66q46 0 82.5 -19.5t60 -46.5t44.5 -54.5t46 -47t53 -19.5q93 0 121 142h110q-17 -117 -81 -181.5t-155 -64.5q-46 0 -83 19t-60.5 46.5t-44.5 55t-45.5 46.5t-52.5 19q-94 0 -121 -142h-110z" />
<glyph unicode="&#xd6;" horiz-adv-x="1564" d="M209 574q0 189 58.5 356t160 286t243.5 188t304 69q252 0 412 -169t160 -435q0 -254 -99 -460t-273.5 -322.5t-390.5 -116.5q-253 0 -414 169.5t-161 434.5zM352 585q0 -220 121.5 -354t320.5 -134q172 0 311.5 99t218.5 273.5t79 388.5q0 220 -120.5 354t-317.5 134 q-171 0 -311.5 -100t-221 -274.5t-80.5 -386.5zM733 1669q0 43 29.5 72.5t72.5 29.5q42 0 72 -29.5t30 -72.5t-30 -72.5t-72 -29.5q-43 0 -72.5 29.5t-29.5 72.5zM1096 1669q0 43 30 72.5t72 29.5q43 0 72.5 -29.5t29.5 -72.5t-29.5 -72.5t-72.5 -29.5q-42 0 -72 29.5 t-30 72.5z" />
<glyph unicode="&#xd7;" d="M261 269l380 314l-243 311l96 80l245 -310l381 313l73 -89l-381 -315l240 -308l-96 -79l-242 307l-380 -314z" />
<glyph unicode="&#xd8;" horiz-adv-x="1535" d="M184 -11l154 183q-133 163 -133 402q0 189 58.5 356t160 286t243.5 188t304 69q211 0 360 -121l135 160l75 -55l-142 -170q144 -166 144 -418q0 -254 -99 -460t-273.5 -322.5t-390.5 -116.5q-220 0 -374 132l-144 -172zM348 585q0 -179 82 -303l813 965q-116 99 -282 99 q-171 0 -311.5 -100t-221 -274.5t-80.5 -386.5zM494 206q117 -109 296 -109q172 0 311.5 99t218.5 273.5t79 388.5q0 191 -92 319z" />
<glyph unicode="&#xd9;" horiz-adv-x="1499" d="M235 414q0 67 13 132l190 897h139l-188 -890q-14 -72 -13 -132q4 -152 102 -236.5t276 -84.5q174 0 300 103.5t164 283.5l205 956h139l-209 -981q-50 -233 -210 -360.5t-412 -127.5q-232 0 -363 122.5t-133 317.5zM747 1874h157l184 -297h-141z" />
<glyph unicode="&#xda;" horiz-adv-x="1499" d="M235 414q0 67 13 132l190 897h139l-188 -890q-14 -72 -13 -132q4 -152 102 -236.5t276 -84.5q174 0 300 103.5t164 283.5l205 956h139l-209 -981q-50 -233 -210 -360.5t-412 -127.5q-232 0 -363 122.5t-133 317.5zM952 1577l373 297h175l-389 -297h-159z" />
<glyph unicode="&#xdb;" horiz-adv-x="1499" d="M235 414q0 67 13 132l190 897h139l-188 -890q-14 -72 -13 -132q4 -152 102 -236.5t276 -84.5q174 0 300 103.5t164 283.5l205 956h139l-209 -981q-50 -233 -210 -360.5t-412 -127.5q-232 0 -363 122.5t-133 317.5zM702 1577l315 297h151l189 -297h-143l-126 208h-12 l-214 -208h-160z" />
<glyph unicode="&#xdc;" horiz-adv-x="1499" d="M235 414q0 67 13 132l190 897h139l-188 -890q-14 -72 -13 -132q4 -152 102 -236.5t276 -84.5q174 0 300 103.5t164 283.5l205 956h139l-209 -981q-50 -233 -210 -360.5t-412 -127.5q-232 0 -363 122.5t-133 317.5zM764 1670q0 43 29.5 72.5t72.5 29.5q42 0 72 -29.5 t30 -72.5t-30 -72.5t-72 -29.5q-43 0 -72.5 29.5t-29.5 72.5zM1127 1670q0 43 30 72.5t72 29.5q43 0 72.5 -29.5t29.5 -72.5t-29.5 -72.5t-72.5 -29.5q-42 0 -72 29.5t-30 72.5z" />
<glyph unicode="&#xdd;" d="M325 1443h143l289 -685h12l568 685h159l-695 -837l-127 -606h-139l133 624zM862 1577l373 297h175l-389 -297h-159z" />
<glyph unicode="&#xde;" horiz-adv-x="1270" d="M127 0l307 1443h137l-59 -274h355q173 0 280 -98.5t107 -250.5q0 -210 -149.5 -339.5t-397.5 -129.5h-368l-75 -351h-137zM365 473h338q191 0 300 90t109 244q0 108 -75 173.5t-214 65.5h-336z" />
<glyph unicode="&#xdf;" horiz-adv-x="1283" d="M155 0l231 1079q35 164 150 256t284 92q165 0 273 -90.5t108 -229.5t-94.5 -238.5t-240.5 -113.5l-3 -13q143 -16 229.5 -103.5t86.5 -217.5q0 -191 -138.5 -315.5t-350.5 -124.5q-120 0 -219 36l26 117q92 -34 197 -34q150 0 251 91t101 226q0 119 -89.5 191.5 t-236.5 72.5h-81l28 129h94q125 0 216 81t91 193q0 100 -70.5 163t-183.5 63q-116 0 -196.5 -71t-107.5 -198l-222 -1041h-133z" />
<glyph unicode="&#xe0;" horiz-adv-x="1126" d="M116 273q0 155 119.5 246t339.5 101l337 16l18 81q7 36 7 64q0 92 -67.5 144t-186.5 52q-106 0 -181.5 -45t-100.5 -122h-138q32 129 150 207t280 78q172 0 274.5 -80.5t102.5 -216.5q0 -44 -9 -89l-151 -709h-127l35 165h-13q-57 -84 -153.5 -133.5t-204.5 -49.5 q-143 0 -237 83t-94 208zM250 286q0 -83 65.5 -136t169.5 -53q135 0 240.5 80.5t132.5 202.5l32 149l-321 -17q-152 -8 -235.5 -67.5t-83.5 -158.5zM457 1594h162l181 -327h-143z" />
<glyph unicode="&#xe1;" horiz-adv-x="1126" d="M116 273q0 155 119.5 246t339.5 101l337 16l18 81q7 36 7 64q0 92 -67.5 144t-186.5 52q-106 0 -181.5 -45t-100.5 -122h-138q32 129 150 207t280 78q172 0 274.5 -80.5t102.5 -216.5q0 -44 -9 -89l-151 -709h-127l35 165h-13q-57 -84 -153.5 -133.5t-204.5 -49.5 q-143 0 -237 83t-94 208zM250 286q0 -83 65.5 -136t169.5 -53q135 0 240.5 80.5t132.5 202.5l32 149l-321 -17q-152 -8 -235.5 -67.5t-83.5 -158.5zM662 1267l320 327h169l-339 -327h-150z" />
<glyph unicode="&#xe2;" horiz-adv-x="1126" d="M116 273q0 155 119.5 246t339.5 101l337 16l18 81q7 36 7 64q0 92 -67.5 144t-186.5 52q-106 0 -181.5 -45t-100.5 -122h-138q32 129 150 207t280 78q172 0 274.5 -80.5t102.5 -216.5q0 -44 -9 -89l-151 -709h-127l35 165h-13q-57 -84 -153.5 -133.5t-204.5 -49.5 q-143 0 -237 83t-94 208zM250 286q0 -83 65.5 -136t169.5 -53q135 0 240.5 80.5t132.5 202.5l32 149l-321 -17q-152 -8 -235.5 -67.5t-83.5 -158.5zM375 1228l346 332h153l205 -332h-144l-142 243h-11l-245 -243h-162z" />
<glyph unicode="&#xe3;" horiz-adv-x="1126" d="M116 273q0 155 119.5 246t339.5 101l337 16l18 81q7 36 7 64q0 92 -67.5 144t-186.5 52q-106 0 -181.5 -45t-100.5 -122h-138q32 129 150 207t280 78q172 0 274.5 -80.5t102.5 -216.5q0 -44 -9 -89l-151 -709h-127l35 165h-13q-57 -84 -153.5 -133.5t-204.5 -49.5 q-143 0 -237 83t-94 208zM250 286q0 -83 65.5 -136t169.5 -53q135 0 240.5 80.5t132.5 202.5l32 149l-321 -17q-152 -8 -235.5 -67.5t-83.5 -158.5zM401 1260q15 115 80 181t156 66q46 0 82.5 -19.5t60 -46.5t44.5 -54.5t46 -47t53 -19.5q93 0 121 142h110 q-17 -117 -81 -181.5t-155 -64.5q-46 0 -83 19t-60.5 46.5t-44.5 55t-45.5 46.5t-52.5 19q-94 0 -121 -142h-110z" />
<glyph unicode="&#xe4;" horiz-adv-x="1126" d="M116 273q0 155 119.5 246t339.5 101l337 16l18 81q7 36 7 64q0 92 -67.5 144t-186.5 52q-106 0 -181.5 -45t-100.5 -122h-138q32 129 150 207t280 78q172 0 274.5 -80.5t102.5 -216.5q0 -44 -9 -89l-151 -709h-127l35 165h-13q-57 -84 -153.5 -133.5t-204.5 -49.5 q-143 0 -237 83t-94 208zM250 286q0 -83 65.5 -136t169.5 -53q135 0 240.5 80.5t132.5 202.5l32 149l-321 -17q-152 -8 -235.5 -67.5t-83.5 -158.5zM474 1330q0 43 29.5 72.5t72.5 29.5q42 0 72 -29.5t30 -72.5t-30 -72.5t-72 -29.5q-43 0 -72.5 29.5t-29.5 72.5zM837 1330 q0 43 30 72.5t72 29.5q43 0 72.5 -29.5t29.5 -72.5t-29.5 -72.5t-72.5 -29.5q-42 0 -72 29.5t-30 72.5z" />
<glyph unicode="&#xe5;" horiz-adv-x="1126" d="M116 273q0 155 119.5 246t339.5 101l337 16l18 81q7 36 7 64q0 92 -67.5 144t-186.5 52q-106 0 -181.5 -45t-100.5 -122h-138q32 129 150 207t280 78q172 0 274.5 -80.5t102.5 -216.5q0 -44 -9 -89l-151 -709h-127l35 165h-13q-57 -84 -153.5 -133.5t-204.5 -49.5 q-143 0 -237 83t-94 208zM250 286q0 -83 65.5 -136t169.5 -53q135 0 240.5 80.5t132.5 202.5l32 149l-321 -17q-152 -8 -235.5 -67.5t-83.5 -158.5zM568 1439q0 88 62 149t151 61t151 -61t62 -149q0 -89 -62 -150t-151 -61t-151 61t-62 150zM656 1439q0 -53 36 -89.5 t89 -36.5t89 36.5t36 89.5t-36 89t-89 36t-89 -36t-36 -89z" />
<glyph unicode="&#xe6;" horiz-adv-x="1898" d="M116 273q0 155 118 243t340 98l337 17l19 86q7 36 7 64q0 92 -67.5 144t-186.5 52q-106 0 -181.5 -45t-100.5 -122h-138q32 129 150 207t280 78q133 0 224 -54t122 -152h13q71 99 172.5 152.5t220.5 53.5q172 0 288 -117t117 -311q0 -84 -14 -151h-811q-6 -58 -6 -83 q0 -162 87.5 -246.5t217.5 -84.5q227 0 310 162h139q-38 -126 -162 -204t-304 -78q-139 0 -247.5 73.5t-146.5 197.5h-11q-56 -116 -178 -193.5t-263 -77.5q-152 0 -248.5 82.5t-96.5 208.5zM250 286q0 -83 65.5 -136t169.5 -53q135 0 240.5 80.5t132.5 202.5l31 143 l-321 -16q-154 -8 -236 -65.5t-82 -155.5zM1043 623h667q3 18 3 58q0 127 -76 212.5t-204 85.5q-137 0 -242.5 -97.5t-147.5 -258.5z" />
<glyph unicode="&#xe7;" horiz-adv-x="1150" d="M165 428q0 189 73.5 341.5t203.5 239t291 86.5q155 0 266.5 -81t136.5 -209q4 -23 6 -45h-134q-11 95 -91 156t-195 61q-178 0 -298.5 -153t-120.5 -378q0 -160 81 -252t221 -92q111 0 194.5 50t116.5 138h137q-34 -136 -157 -220.5t-291 -87.5l-77 -121q88 -9 134 -48.5 t46 -106.5q0 -82 -65.5 -134t-167.5 -52q-97 0 -171 37l18 87q27 -13 71 -22.5t80 -9.5q54 0 87 23.5t33 63.5q0 39 -35.5 62t-100.5 25l-52 1l11 72l85 131q-155 29 -245.5 146t-90.5 292z" />
<glyph unicode="&#xe8;" horiz-adv-x="1176" d="M165 424q0 294 159 482.5t402 188.5q173 0 289 -117.5t117 -310.5q0 -82 -15 -154h-811q-5 -43 -5 -78q0 -162 87.5 -247.5t217.5 -85.5q228 0 309 162h140q-39 -126 -161 -204t-297 -78q-189 0 -310.5 118.5t-121.5 323.5zM324 621h667q4 16 4 60q0 127 -76 212.5 t-205 85.5q-138 0 -243.5 -98.5t-146.5 -259.5zM474 1594h162l181 -327h-143z" />
<glyph unicode="&#xe9;" horiz-adv-x="1176" d="M165 424q0 294 159 482.5t402 188.5q173 0 289 -117.5t117 -310.5q0 -82 -15 -154h-811q-5 -43 -5 -78q0 -162 87.5 -247.5t217.5 -85.5q228 0 309 162h140q-39 -126 -161 -204t-297 -78q-189 0 -310.5 118.5t-121.5 323.5zM324 621h667q4 16 4 60q0 127 -76 212.5 t-205 85.5q-138 0 -243.5 -98.5t-146.5 -259.5zM679 1267l320 327h169l-339 -327h-150z" />
<glyph unicode="&#xea;" horiz-adv-x="1176" d="M165 424q0 294 159 482.5t402 188.5q173 0 289 -117.5t117 -310.5q0 -82 -15 -154h-811q-5 -43 -5 -78q0 -162 87.5 -247.5t217.5 -85.5q228 0 309 162h140q-39 -126 -161 -204t-297 -78q-189 0 -310.5 118.5t-121.5 323.5zM324 621h667q4 16 4 60q0 127 -76 212.5 t-205 85.5q-138 0 -243.5 -98.5t-146.5 -259.5zM392 1228l346 332h153l205 -332h-144l-142 243h-11l-245 -243h-162z" />
<glyph unicode="&#xeb;" horiz-adv-x="1176" d="M165 424q0 294 159 482.5t402 188.5q173 0 289 -117.5t117 -310.5q0 -82 -15 -154h-811q-5 -43 -5 -78q0 -162 87.5 -247.5t217.5 -85.5q228 0 309 162h140q-39 -126 -161 -204t-297 -78q-189 0 -310.5 118.5t-121.5 323.5zM324 621h667q4 16 4 60q0 127 -76 212.5 t-205 85.5q-138 0 -243.5 -98.5t-146.5 -259.5zM491 1330q0 43 29.5 72.5t72.5 29.5q42 0 72 -29.5t30 -72.5t-30 -72.5t-72 -29.5q-43 0 -72.5 29.5t-29.5 72.5zM854 1330q0 43 30 72.5t72 29.5q43 0 72.5 -29.5t29.5 -72.5t-29.5 -72.5t-72.5 -29.5q-42 0 -72 29.5 t-30 72.5z" />
<glyph unicode="&#xec;" horiz-adv-x="489" d="M122 0l229 1077h131l-229 -1077h-131zM170 1594h162l181 -327h-143z" />
<glyph unicode="&#xed;" horiz-adv-x="489" d="M122 0l229 1077h131l-229 -1077h-131zM375 1267l320 327h169l-339 -327h-150z" />
<glyph unicode="&#xee;" horiz-adv-x="489" d="M88 1228l346 332h153l205 -332h-144l-142 243h-11l-245 -243h-162zM122 0l229 1077h131l-229 -1077h-131z" />
<glyph unicode="&#xef;" horiz-adv-x="489" d="M122 0l229 1077h131l-229 -1077h-131zM187 1330q0 43 29.5 72.5t72.5 29.5q42 0 72 -29.5t30 -72.5t-30 -72.5t-72 -29.5q-43 0 -72.5 29.5t-29.5 72.5zM550 1330q0 43 30 72.5t72 29.5q43 0 72.5 -29.5t29.5 -72.5t-29.5 -72.5t-72.5 -29.5q-42 0 -72 29.5t-30 72.5z " />
<glyph unicode="&#xf0;" horiz-adv-x="1192" d="M154 400q0 185 69 335.5t191.5 237t273.5 86.5q123 0 220.5 -61.5t131.5 -159.5h12v17q-3 206 -119 404l-341 -112l-7 99l295 98q-55 70 -141 153h150q69 -67 106 -118l256 88l7 -99l-215 -75q126 -233 126 -485q0 -158 -37 -315q-57 -238 -202 -374.5t-345 -136.5 q-189 0 -310 118.5t-121 299.5zM292 424q0 -149 82.5 -236t222.5 -87q110 0 207 71.5t154.5 192.5t57.5 258q0 140 -88 227t-228 87q-115 0 -208.5 -66.5t-146.5 -184.5t-53 -262z" />
<glyph unicode="&#xf1;" horiz-adv-x="1198" d="M111 0l229 1077h127l-39 -183h12q131 201 354 201q153 0 246 -93.5t93 -229.5q0 -58 -13 -119l-139 -653h-133l134 630q13 63 13 107q0 108 -67.5 174t-185.5 66q-134 0 -231 -89t-126 -226l-141 -662h-133zM467 1260q15 115 80 181t156 66q46 0 82.5 -19.5t60 -46.5 t44.5 -54.5t46 -47t53 -19.5q93 0 121 142h110q-17 -117 -81 -181.5t-155 -64.5q-46 0 -83 19t-60.5 46.5t-44.5 55t-45.5 46.5t-52.5 19q-94 0 -121 -142h-110z" />
<glyph unicode="&#xf2;" horiz-adv-x="1217" d="M166 428q0 191 72.5 343.5t201.5 238t291 85.5q195 0 315.5 -122.5t120.5 -321.5q0 -190 -73 -343t-202 -239.5t-289 -86.5q-196 0 -316.5 123t-120.5 323zM304 442q0 -155 86 -248t229 -93q112 0 206 69.5t148.5 189.5t54.5 263q0 164 -83 259t-226 95 q-182 0 -298.5 -150t-116.5 -385zM482 1594h162l181 -327h-143z" />
<glyph unicode="&#xf3;" horiz-adv-x="1217" d="M166 428q0 191 72.5 343.5t201.5 238t291 85.5q195 0 315.5 -122.5t120.5 -321.5q0 -190 -73 -343t-202 -239.5t-289 -86.5q-196 0 -316.5 123t-120.5 323zM304 442q0 -155 86 -248t229 -93q112 0 206 69.5t148.5 189.5t54.5 263q0 164 -83 259t-226 95 q-182 0 -298.5 -150t-116.5 -385zM687 1267l320 327h169l-339 -327h-150z" />
<glyph unicode="&#xf4;" horiz-adv-x="1217" d="M166 428q0 191 72.5 343.5t201.5 238t291 85.5q195 0 315.5 -122.5t120.5 -321.5q0 -190 -73 -343t-202 -239.5t-289 -86.5q-196 0 -316.5 123t-120.5 323zM304 442q0 -155 86 -248t229 -93q112 0 206 69.5t148.5 189.5t54.5 263q0 164 -83 259t-226 95 q-182 0 -298.5 -150t-116.5 -385zM400 1228l346 332h153l205 -332h-144l-142 243h-11l-245 -243h-162z" />
<glyph unicode="&#xf5;" horiz-adv-x="1217" d="M166 428q0 191 72.5 343.5t201.5 238t291 85.5q195 0 315.5 -122.5t120.5 -321.5q0 -190 -73 -343t-202 -239.5t-289 -86.5q-196 0 -316.5 123t-120.5 323zM304 442q0 -155 86 -248t229 -93q112 0 206 69.5t148.5 189.5t54.5 263q0 164 -83 259t-226 95 q-182 0 -298.5 -150t-116.5 -385zM426 1260q15 115 80 181t156 66q46 0 82.5 -19.5t60 -46.5t44.5 -54.5t46 -47t53 -19.5q93 0 121 142h110q-17 -117 -81 -181.5t-155 -64.5q-46 0 -83 19t-60.5 46.5t-44.5 55t-45.5 46.5t-52.5 19q-94 0 -121 -142h-110z" />
<glyph unicode="&#xf6;" horiz-adv-x="1217" d="M166 428q0 191 72.5 343.5t201.5 238t291 85.5q195 0 315.5 -122.5t120.5 -321.5q0 -190 -73 -343t-202 -239.5t-289 -86.5q-196 0 -316.5 123t-120.5 323zM304 442q0 -155 86 -248t229 -93q112 0 206 69.5t148.5 189.5t54.5 263q0 164 -83 259t-226 95 q-182 0 -298.5 -150t-116.5 -385zM499 1330q0 43 29.5 72.5t72.5 29.5q42 0 72 -29.5t30 -72.5t-30 -72.5t-72 -29.5q-43 0 -72.5 29.5t-29.5 72.5zM862 1330q0 43 30 72.5t72 29.5q43 0 72.5 -29.5t29.5 -72.5t-29.5 -72.5t-72.5 -29.5q-42 0 -72 29.5t-30 72.5z" />
<glyph unicode="&#xf7;" d="M223 523l24 114h983l-24 -114h-983zM537 223q0 46 30.5 76.5t76.5 30.5q45 0 75.5 -30.5t30.5 -76.5t-30.5 -76.5t-75.5 -30.5q-46 0 -76.5 30.5t-30.5 76.5zM687 929q0 46 31 76t77 30q45 0 75.5 -30t30.5 -76t-30.5 -76.5t-75.5 -30.5q-46 0 -77 30.5t-31 76.5z" />
<glyph unicode="&#xf8;" horiz-adv-x="1218" d="M105 -2l144 156q-81 114 -81 274q0 191 72.5 343.5t202 238t291.5 85.5q174 0 291 -100l128 139l68 -51l-138 -150q87 -115 87 -282q0 -190 -73 -343t-202.5 -239.5t-289.5 -86.5q-180 0 -297 106l-133 -145zM307 442q0 -104 40 -182l587 637q-80 80 -212 80 q-182 0 -298.5 -150t-116.5 -385zM399 187q86 -86 222 -86q113 0 207 69.5t148.5 189.5t54.5 263q0 119 -45 204z" />
<glyph unicode="&#xf9;" horiz-adv-x="1196" d="M182 298q0 64 14 129l137 650h133l-133 -629q-14 -68 -14 -118q0 -111 62.5 -170t180.5 -59q138 0 238 90.5t130 231.5l140 654h132l-229 -1077h-126l38 173h-12q-54 -87 -146 -139t-213 -52q-149 0 -240.5 89.5t-91.5 226.5zM509 1594h162l181 -327h-143z" />
<glyph unicode="&#xfa;" horiz-adv-x="1196" d="M182 298q0 64 14 129l137 650h133l-133 -629q-14 -68 -14 -118q0 -111 62.5 -170t180.5 -59q138 0 238 90.5t130 231.5l140 654h132l-229 -1077h-126l38 173h-12q-54 -87 -146 -139t-213 -52q-149 0 -240.5 89.5t-91.5 226.5zM714 1267l320 327h169l-339 -327h-150z" />
<glyph unicode="&#xfb;" horiz-adv-x="1196" d="M182 298q0 64 14 129l137 650h133l-133 -629q-14 -68 -14 -118q0 -111 62.5 -170t180.5 -59q138 0 238 90.5t130 231.5l140 654h132l-229 -1077h-126l38 173h-12q-54 -87 -146 -139t-213 -52q-149 0 -240.5 89.5t-91.5 226.5zM427 1228l346 332h153l205 -332h-144 l-142 243h-11l-245 -243h-162z" />
<glyph unicode="&#xfc;" horiz-adv-x="1196" d="M182 298q0 64 14 129l137 650h133l-133 -629q-14 -68 -14 -118q0 -111 62.5 -170t180.5 -59q138 0 238 90.5t130 231.5l140 654h132l-229 -1077h-126l38 173h-12q-54 -87 -146 -139t-213 -52q-149 0 -240.5 89.5t-91.5 226.5zM526 1330q0 43 29.5 72.5t72.5 29.5 q42 0 72 -29.5t30 -72.5t-30 -72.5t-72 -29.5q-43 0 -72.5 29.5t-29.5 72.5zM889 1330q0 43 30 72.5t72 29.5q43 0 72.5 -29.5t29.5 -72.5t-29.5 -72.5t-72.5 -29.5q-42 0 -72 29.5t-30 72.5z" />
<glyph unicode="&#xfd;" horiz-adv-x="1079" d="M43 -369l23 110q42 -11 87 -11q61 0 111 42.5t108 145.5l45 81l-178 1078h131l142 -913h12l516 913h144l-696 -1202q-86 -149 -161.5 -203t-181.5 -54q-53 0 -102 13zM669 1267l320 327h169l-339 -327h-150z" />
<glyph unicode="&#xfe;" horiz-adv-x="1255" d="M38 -371l397 1867h131l-126 -603h12q64 97 161 149.5t213 52.5q166 0 274.5 -117.5t108.5 -300.5q0 -189 -73 -349t-200 -253t-280 -93q-130 0 -224 72.5t-117 189.5h-12l-133 -615h-132zM350 430q0 -152 80.5 -240.5t217.5 -88.5q118 0 215.5 75t153 202.5t55.5 279.5 q0 149 -76.5 234t-210.5 85q-123 0 -224 -77t-156 -202t-55 -268z" />
<glyph unicode="&#xff;" horiz-adv-x="1079" d="M43 -369l23 110q42 -11 87 -11q61 0 111 42.5t108 145.5l45 81l-178 1078h131l142 -913h12l516 913h144l-696 -1202q-86 -149 -161.5 -203t-181.5 -54q-53 0 -102 13zM481 1330q0 43 29.5 72.5t72.5 29.5q42 0 72 -29.5t30 -72.5t-30 -72.5t-72 -29.5q-43 0 -72.5 29.5 t-29.5 72.5zM844 1330q0 43 30 72.5t72 29.5q43 0 72.5 -29.5t29.5 -72.5t-29.5 -72.5t-72.5 -29.5q-42 0 -72 29.5t-30 72.5z" />
<glyph unicode="&#x152;" horiz-adv-x="2323" d="M209 574q0 190 58.5 357t160 286t244 187.5t303.5 68.5q184 0 316.5 -99t181.5 -263h13l71 332h872l-26 -124h-733l-112 -519h697l-26 -122h-696l-118 -554h733l-26 -124h-872l44 209l-12 -1q-87 -110 -215.5 -174t-282.5 -64q-253 0 -414 169t-161 435zM352 585 q0 -220 121 -354t321 -134q172 0 311.5 99t218.5 273.5t79 388.5q0 220 -120.5 354t-317.5 134q-128 0 -241.5 -58.5t-195 -159.5t-129 -242.5t-47.5 -300.5z" />
<glyph unicode="&#x153;" horiz-adv-x="2030" d="M166 428q0 190 71.5 342t201 238.5t292.5 86.5q145 0 246 -73.5t141 -207.5h12q70 134 186 207.5t261 73.5q177 0 290.5 -120.5t114.5 -307.5q0 -81 -14 -154h-812q-4 -50 -4 -80q0 -151 83 -241t221 -90q111 0 190 41.5t120 120.5h139q-38 -129 -162.5 -205.5 t-294.5 -76.5q-144 0 -247 70.5t-143 196.5h-12q-71 -126 -187.5 -196.5t-258.5 -70.5q-194 0 -314 123t-120 323zM304 442q0 -155 86 -248t229 -93q171 0 290 152.5t119 369.5q0 164 -83 259t-226 95q-182 0 -298.5 -151t-116.5 -384zM1174 620h668q3 20 3 61 q0 131 -78 214.5t-202 83.5q-136 0 -242.5 -97.5t-148.5 -261.5z" />
<glyph unicode="&#x178;" d="M325 1443h143l289 -685h12l568 685h159l-695 -837l-127 -606h-139l133 624zM674 1670q0 43 29.5 72.5t72.5 29.5q42 0 72 -29.5t30 -72.5t-30 -72.5t-72 -29.5q-43 0 -72.5 29.5t-29.5 72.5zM1037 1670q0 43 30 72.5t72 29.5q43 0 72.5 -29.5t29.5 -72.5t-29.5 -72.5 t-72.5 -29.5q-42 0 -72 29.5t-30 72.5z" />
<glyph unicode="&#x2c6;" horiz-adv-x="1000" d="M352 1228l346 332h153l205 -332h-144l-142 243h-11l-245 -243h-162z" />
<glyph unicode="&#x2dc;" horiz-adv-x="1000" d="M373 1282q15 115 80 181t156 66q46 0 82.5 -19.5t60 -46.5t44.5 -54.5t46 -47t53 -19.5q93 0 121 142h110q-17 -117 -81 -181.5t-155 -64.5q-46 0 -83 19t-60.5 46.5t-44.5 55t-45.5 46.5t-52.5 19q-94 0 -121 -142h-110z" />
<glyph unicode="&#x2000;" horiz-adv-x="992" />
<glyph unicode="&#x2001;" horiz-adv-x="1984" />
<glyph unicode="&#x2002;" horiz-adv-x="992" />
<glyph unicode="&#x2003;" horiz-adv-x="1984" />
<glyph unicode="&#x2004;" horiz-adv-x="661" />
<glyph unicode="&#x2005;" horiz-adv-x="496" />
<glyph unicode="&#x2006;" horiz-adv-x="330" />
<glyph unicode="&#x2007;" horiz-adv-x="330" />
<glyph unicode="&#x2008;" horiz-adv-x="248" />
<glyph unicode="&#x2009;" horiz-adv-x="396" />
<glyph unicode="&#x200a;" horiz-adv-x="110" />
<glyph unicode="&#x2010;" horiz-adv-x="975" d="M213 520l26 124h656l-26 -124h-656z" />
<glyph unicode="&#x2011;" horiz-adv-x="975" d="M213 520l26 124h656l-26 -124h-656z" />
<glyph unicode="&#x2012;" horiz-adv-x="975" d="M213 520l26 124h656l-26 -124h-656z" />
<glyph unicode="&#x2013;" horiz-adv-x="1183" d="M53 520l27 124h1183l-27 -124h-1183z" />
<glyph unicode="&#x2014;" horiz-adv-x="2048" d="M53 520l27 124h2048l-27 -124h-2048z" />
<glyph unicode="&#x2018;" horiz-adv-x="548" d="M282 932l268 511h99l-219 -511h-148z" />
<glyph unicode="&#x2019;" horiz-adv-x="548" d="M304 932l211 511h148l-261 -511h-98z" />
<glyph unicode="&#x201a;" horiz-adv-x="548" d="M27 -349l212 532h145l-256 -532h-101z" />
<glyph unicode="&#x201c;" horiz-adv-x="904" d="M276 911l272 532h100l-226 -532h-146zM635 911l256 532h101l-212 -532h-145z" />
<glyph unicode="&#x201d;" horiz-adv-x="904" d="M298 911l212 532h146l-257 -532h-101zM642 911l227 532h145l-272 -532h-100z" />
<glyph unicode="&#x201e;" horiz-adv-x="904" d="M30 -349l212 532h146l-257 -532h-101zM374 -349l227 532h145l-271 -532h-101z" />
<glyph unicode="&#x2022;" horiz-adv-x="1037" d="M316 559q0 111 77 187.5t187 76.5q111 0 188 -76.5t77 -187.5t-77 -188t-188 -77q-110 0 -187 77t-77 188z" />
<glyph unicode="&#x2026;" horiz-adv-x="1626" d="M134 97q0 44 31 75t75 31t74.5 -31t30.5 -75t-30.5 -74.5t-74.5 -30.5t-75 30.5t-31 74.5zM651 97q0 44 31 75t75 31t75 -31t31 -75t-31 -74.5t-75 -30.5t-75 30.5t-31 74.5zM1160 97q0 44 31 75t75 31t74.5 -31t30.5 -75t-30.5 -74.5t-74.5 -30.5t-75 30.5t-31 74.5z " />
<glyph unicode="&#x202f;" horiz-adv-x="396" />
<glyph unicode="&#x2039;" horiz-adv-x="911" d="M238 563l1 6l447 414h170l-457 -426l-2 -13l259 -395h-147z" />
<glyph unicode="&#x203a;" horiz-adv-x="911" d="M182 149l456 426l3 12l-259 396h147l271 -414l-1 -6l-447 -414h-170z" />
<glyph unicode="&#x205f;" horiz-adv-x="496" />
<glyph unicode="&#x20ac;" d="M120 515l23 106h205v20q0 95 15 180h-176l23 105h178q76 250 280.5 392.5t496.5 142.5q111 0 239 -28l-28 -125q-116 26 -219 26q-226 0 -387.5 -107.5t-230.5 -300.5h543l-22 -105h-550q-16 -86 -16 -173q0 -18 1 -27h520l-23 -106h-484q43 -189 199 -300.5t388 -111.5 q34 0 59 5l-27 -125q-15 -5 -64 -5q-276 0 -468 148t-236 389h-239z" />
<glyph unicode="&#x2122;" horiz-adv-x="1958" d="M315 1339l23 104h719l-24 -104h-300l-175 -770h-119l176 770h-300zM999 569l186 874h132l134 -695h7l428 695h143l-186 -874h-110l141 669h-6l-399 -645h-86l-125 645h-6l-142 -669h-111z" />
<glyph unicode="&#x25fc;" horiz-adv-x="1075" d="M0 0v1075h1075v-1075h-1075z" />
<glyph unicode="&#xfb01;" horiz-adv-x="1212" d="M187 0l202 966h-180l23 111h180l25 124q29 151 112.5 221.5t229.5 70.5q53 0 109 -13l-23 -110q-42 11 -98 11q-160 0 -197 -184l-24 -120h258l-24 -111h-257l-202 -966h-134zM845 0l229 1077h131l-229 -1077h-131zM1114 1415q0 40 29 68.5t69 28.5t68.5 -28.5 t28.5 -68.5t-28.5 -69t-68.5 -29t-69 28.5t-29 69.5z" />
<glyph unicode="&#xfb02;" horiz-adv-x="1211" d="M187 0l202 966h-180l23 111h180l25 124q29 151 112.5 221.5t229.5 70.5q53 0 109 -13l-23 -110q-42 11 -98 11q-160 0 -197 -184l-24 -120h258l-24 -111h-257l-202 -966h-134zM844 0l320 1506h133l-320 -1506h-133z" />
</font>
</defs>
</svg>
