<?xml version="1.0" standalone="no"?>
<!DOCTYPE svg PUBLIC "-//W3C//DTD SVG 1.1//EN" "http://www.w3.org/Graphics/SVG/1.1/DTD/svg11.dtd" >
<svg xmlns="http://www.w3.org/2000/svg" xmlns:xlink="http://www.w3.org/1999/xlink" version="1.1">
<metadata></metadata>
<defs>
<font id="sf_pro_textheavy_italic" horiz-adv-x="1461" >
<font-face units-per-em="2048" ascent="1638" descent="-410" />
<missing-glyph horiz-adv-x="502" />
<glyph horiz-adv-x="0" />
<glyph unicode="&#xd;" horiz-adv-x="0" />
<glyph unicode=" "  horiz-adv-x="502" />
<glyph unicode="&#x09;" horiz-adv-x="502" />
<glyph unicode="&#xa0;" horiz-adv-x="502" />
<glyph unicode="!" horiz-adv-x="777" d="M132 140q0 84 55 137t149 53q93 0 148.5 -51t55.5 -124q0 -84 -55 -137t-149 -53q-93 0 -148.5 51t-55.5 124zM252 473l175 970h383l-238 -970h-320z" />
<glyph unicode="&#x22;" horiz-adv-x="1079" d="M225 802l136 641h298l-137 -641h-297zM732 802l137 641h297l-136 -641h-298z" />
<glyph unicode="#" horiz-adv-x="1394" d="M53 368l79 253h222l71 221h-221l79 251h223l115 351h262l-114 -351h223l114 351h264l-114 -351h229l-78 -251h-232l-72 -221h231l-79 -253h-233l-119 -368h-264l120 368h-223l-120 -368h-262l119 368h-220zM587 594h264l91 274h-266z" />
<glyph unicode="$" d="M158 427h338q4 -53 40 -92t97 -58l67 315l-66 20q-164 50 -253.5 153t-89.5 237q0 199 154 321.5t404 122.5q22 0 33 -1l29 139h144l-33 -157q171 -39 272.5 -149t104.5 -262h-328q-8 97 -106 144l-65 -304l65 -19q182 -54 268.5 -148t86.5 -232q0 -213 -159.5 -336.5 t-427.5 -123.5h-16l-28 -133h-144l31 146q-192 33 -303 143t-115 274zM645 1035q0 -85 120 -135l61 283q-82 -4 -131.5 -45t-49.5 -103zM773 261q90 5 143 47t53 108q0 45 -29.5 75t-104.5 58z" />
<glyph unicode="%" horiz-adv-x="1909" d="M200 0l741 765l540 678h381l-756 -771l-526 -672h-380zM240 1064q0 176 111 295.5t276 119.5q150 0 238.5 -89.5t88.5 -241.5q0 -177 -112 -297t-278 -120q-149 0 -236.5 90t-87.5 243zM495 1067q0 -56 21 -87t58 -31q52 0 89 58.5t37 140.5q0 55 -20.5 85t-58.5 30 q-52 0 -89 -57.5t-37 -138.5zM1101 295q0 177 111 296.5t276 119.5q150 0 238.5 -89.5t88.5 -241.5q0 -177 -112.5 -297t-277.5 -120q-149 0 -236.5 89.5t-87.5 242.5zM1356 298q0 -56 20.5 -86.5t58.5 -30.5q52 0 88.5 58.5t36.5 140.5q0 55 -20.5 85t-57.5 30 q-52 0 -89 -58t-37 -139z" />
<glyph unicode="&#x26;" horiz-adv-x="1560" d="M90 364q0 280 348 417l77 31q-116 166 -116 297q0 150 127.5 251t317.5 101q182 0 304 -89.5t122 -223.5q0 -269 -370 -418l179 -266q92 133 101 274l2 24h285l-3 -29q-26 -275 -234 -491l163 -242h-351l-46 68q-180 -96 -382 -96q-227 0 -375.5 111t-148.5 281zM412 394 q0 -79 65 -129t169 -50q118 0 218 55l-229 348q-7 -2 -23.5 -8t-18.5 -7q-88 -34 -134.5 -87.5t-46.5 -121.5zM693 1078q0 -69 84 -176q202 76 202 215q0 54 -36 86.5t-93 32.5q-65 0 -111 -46t-46 -112z" />
<glyph unicode="'" horiz-adv-x="571" d="M225 802l136 641h298l-137 -641h-297z" />
<glyph unicode="(" horiz-adv-x="929" d="M261 385q0 323 126.5 624t342.5 521h368q-103 -106 -187.5 -232.5t-151.5 -278t-103.5 -330.5t-35.5 -368q3 -397 86 -633h-320q-57 122 -91 314.5t-34 382.5z" />
<glyph unicode=")" horiz-adv-x="929" d="M-76 -312q139 144 243 319t170 408.5t64 482.5q-1 390 -85 632h319q57 -121 91 -313.5t34 -382.5q0 -323 -126 -624t-342 -522h-368z" />
<glyph unicode="*" horiz-adv-x="1032" d="M238 1014l303 73l-265 126l147 190l194 -220l4 303l234 -23l-112 -291l265 174l81 -215l-309 -72l265 -128l-147 -190l-192 216l1 -298l-234 23l108 287l-262 -170z" />
<glyph unicode="+" d="M184 436l64 301h391l84 397h319l-85 -397h403l-64 -301h-403l-84 -400h-319l85 400h-391z" />
<glyph unicode="," horiz-adv-x="767" d="M-21 -400l234 646h335l-325 -646h-244z" />
<glyph unicode="-" horiz-adv-x="1006" d="M181 425l68 316h658l-68 -316h-658z" />
<glyph unicode="." horiz-adv-x="767" d="M126 150q0 86 55 142t147 56q91 0 146.5 -53.5t55.5 -129.5q0 -86 -55 -142t-147 -56q-91 0 -146.5 53.5t-55.5 129.5z" />
<glyph unicode="/" horiz-adv-x="857" d="M-146 -312l898 1842h344l-898 -1842h-344z" />
<glyph unicode="0" horiz-adv-x="1460" d="M172 538q0 203 54.5 378.5t149.5 299.5t228.5 195t286.5 71q251 0 396.5 -154t145.5 -421q0 -203 -55 -379t-150.5 -300.5t-229.5 -195.5t-287 -71q-250 0 -394.5 154.5t-144.5 422.5zM541 514q0 -127 46.5 -198t129.5 -71q89 0 169.5 95t129 254.5t48.5 336.5 q0 126 -47 196t-131 70q-89 0 -169 -94.5t-128 -253t-48 -335.5z" />
<glyph unicode="1" horiz-adv-x="1101" d="M223 866l70 327l421 250h366l-307 -1443h-367l234 1100h-19z" />
<glyph unicode="2" horiz-adv-x="1360" d="M70 0l56 257l526 410q210 163 275.5 234.5t65.5 145.5q0 69 -52 112.5t-134 43.5q-31 0 -62 -9t-64 -30t-59.5 -62t-38.5 -98h-334q16 208 183 343t408 135q223 0 367.5 -114.5t144.5 -290.5q0 -73 -21.5 -132.5t-80 -128t-139 -137t-220.5 -175.5l-259 -202l-4 -19h592 l-60 -283h-1090z" />
<glyph unicode="3" horiz-adv-x="1409" d="M128 392q0 28 6 71h342v-1q-14 -89 50 -150t171 -61q101 0 165 56.5t64 145.5q0 73 -56.5 117.5t-147.5 44.5h-160l53 254h183q110 0 172.5 48.5t62.5 132.5q0 71 -55 114t-145 43q-78 0 -136 -40.5t-81 -110.5h-333q41 196 197.5 311t383.5 115q226 0 371.5 -109.5 t145.5 -279.5q0 -137 -99.5 -241t-245.5 -118l-3 -20q123 -28 188.5 -106t65.5 -196q0 -128 -76 -231.5t-211.5 -161.5t-303.5 -58q-255 0 -411.5 119t-156.5 312z" />
<glyph unicode="4" horiz-adv-x="1463" d="M81 234l61 321q241 328 728 888h527l-196 -923h179l-60 -286h-180l-50 -234h-347l50 234h-712zM457 507h404l143 674h-18q-264 -306 -526 -656z" />
<glyph unicode="5" horiz-adv-x="1411" d="M167 402q0 9 2 41h332v-1q5 -88 69 -142.5t164 -54.5q108 0 180.5 75.5t72.5 186.5q0 98 -59 156t-155 58q-58 0 -116 -28t-93 -71h-330l242 821h952l-62 -286h-662l-99 -312h18q113 119 297 119q175 0 292 -119.5t117 -299.5q0 -255 -172 -419.5t-443 -164.5 q-156 0 -281 57t-195.5 158t-70.5 226z" />
<glyph unicode="6" horiz-adv-x="1459" d="M186 562q0 147 33 284.5t96.5 252.5t151 201t204 134t247.5 48q229 0 378.5 -124.5t151.5 -315.5h-352q-11 72 -63.5 114t-131.5 42q-125 0 -219.5 -117t-124.5 -308l19 -1q61 85 151.5 130.5t198.5 45.5q188 0 309 -121t121 -310q0 -154 -78.5 -282t-215 -201 t-301.5 -73q-270 0 -422.5 159t-152.5 442zM541 449q0 -90 62 -149t157 -59q104 0 174.5 71t70.5 176q0 90 -60.5 148.5t-153.5 58.5q-106 0 -178 -71t-72 -175z" />
<glyph unicode="7" horiz-adv-x="1277" d="M105 0l841 1141l5 20h-685l60 282h1066l-60 -283l-829 -1160h-398z" />
<glyph unicode="8" horiz-adv-x="1472" d="M126 373q0 156 111.5 268.5t295.5 141.5l4 19q-93 34 -148.5 107.5t-55.5 160.5q0 178 161 295t406 117q148 0 271 -50.5t193.5 -138.5t70.5 -195q0 -136 -92.5 -233.5t-243.5 -120.5l-4 -19q117 -40 184 -125.5t67 -194.5q0 -194 -178 -319t-453 -125q-259 0 -424 115 t-165 297zM511 405q0 -82 60.5 -133t158.5 -51q105 0 174.5 61t69.5 153q0 82 -61.5 134.5t-158.5 52.5q-104 0 -173.5 -62t-69.5 -155zM680 1031q0 -71 51.5 -117t131.5 -46q87 0 148.5 58t61.5 138q0 71 -52.5 117.5t-131.5 46.5q-87 0 -148 -57.5t-61 -139.5z" />
<glyph unicode="9" horiz-adv-x="1457" d="M149 385h353q7 -64 62 -102.5t140 -38.5q132 0 229 117.5t119 304.5h-18q-128 -176 -348 -176q-191 0 -316.5 123t-125.5 310q0 158 77.5 286t214.5 200.5t307 72.5q269 0 419 -160.5t150 -446.5q0 -143 -33.5 -279t-97.5 -250.5t-151 -201t-202 -135t-242 -48.5 q-224 0 -376.5 120.5t-160.5 303.5zM597 950q0 -91 60 -149t152 -58q105 0 176.5 70.5t71.5 175.5q0 91 -60 149t-155 58q-104 0 -174.5 -70.5t-70.5 -175.5z" />
<glyph unicode=":" horiz-adv-x="767" d="M126 150q0 86 55 142t147 56q91 0 146.5 -53.5t55.5 -129.5q0 -86 -55 -142t-147 -56q-91 0 -146.5 53.5t-55.5 129.5zM280 875q0 87 54 142.5t147 55.5q92 0 147 -53t55 -129q0 -87 -54.5 -142.5t-147.5 -55.5q-91 0 -146 53t-55 129z" />
<glyph unicode=";" horiz-adv-x="767" d="M-21 -400l234 646h335l-325 -646h-244zM280 875q0 87 54.5 142.5t147.5 55.5q91 0 146.5 -53t55.5 -129q0 -87 -54.5 -142.5t-147.5 -55.5q-91 0 -146.5 53t-55.5 129z" />
<glyph unicode="&#x3c;" d="M248 463l57 271l1097 472l-75 -352l-687 -260l-4 -19l571 -287l-71 -333z" />
<glyph unicode="=" d="M132 178l64 302h1107l-64 -302h-1107zM241 692l64 302h1108l-64 -302h-1108z" />
<glyph unicode="&#x3e;" d="M140 -45l75 352l688 260l3 19l-570 287l70 333l889 -508l-58 -271z" />
<glyph unicode="?" horiz-adv-x="1189" d="M223 1039q21 185 162.5 301t357.5 116q224 0 360 -103.5t136 -267.5q0 -128 -71.5 -232.5t-208.5 -164.5q-115 -50 -161 -91t-60 -109l-8 -35h-318l8 55q21 136 74 207.5t169 122.5q124 55 172 104.5t48 115.5q0 56 -42.5 91t-113.5 35q-64 0 -113 -39.5t-65 -105.5h-326 zM304 139q0 84 58.5 139.5t150.5 55.5q89 0 149 -48t60 -124q0 -82 -58.5 -138.5t-150.5 -56.5q-93 0 -151 47.5t-58 124.5z" />
<glyph unicode="@" horiz-adv-x="1908" d="M181 522q0 194 72 365.5t195.5 294t297.5 193.5t370 71q219 0 390.5 -86.5t266.5 -242.5t95 -355q0 -174 -62 -315t-171 -221.5t-243 -80.5q-113 0 -183.5 43.5t-70.5 115.5q0 6 0.5 15.5t0.5 13.5l-19 -4q-82 -144 -232 -144q-133 0 -213 95t-80 253q0 133 52.5 244.5 t143 175.5t197.5 64q88 0 150.5 -43t79.5 -116l19 -2l25 126h233l-116 -540q-5 -25 -5 -40q0 -37 20 -57.5t55 -20.5q54 0 103.5 60.5t79.5 160.5t30 210q0 228 -155 370.5t-403 142.5q-149 0 -282.5 -57t-229.5 -154.5t-152 -234t-56 -288.5q0 -272 182.5 -431.5 t493.5 -158.5q82 0 120 11l-38 -178q-63 -11 -144 -11q-242 0 -428 94.5t-287.5 266t-101.5 395.5zM856 542q0 -72 34 -114t93 -42q74 0 125.5 74.5t51.5 183.5q0 74 -33 116t-90 42q-75 0 -128 -76.5t-53 -183.5z" />
<glyph unicode="A" horiz-adv-x="1564" d="M-10 0l806 1443h446l166 -1443h-382l-23 317h-473l-162 -317h-378zM659 581h333l-39 536h-20z" />
<glyph unicode="B" horiz-adv-x="1459" d="M87 0l307 1443h636q187 0 302 -85.5t115 -223.5q0 -144 -95.5 -249t-238.5 -120l-1 -19q121 -22 192 -100.5t71 -189.5q0 -200 -153 -328t-391 -128h-744zM511 267h245q112 0 183 60t71 156q0 74 -53 115.5t-149 41.5h-218zM638 863h209q102 0 167.5 54.5t65.5 138.5 q0 65 -46.5 101t-131.5 36h-193z" />
<glyph unicode="C" horiz-adv-x="1569" d="M169 574q0 263 103.5 470.5t288 322.5t418.5 115q167 0 305 -68t217 -186.5t79 -261.5q0 -37 -3 -58h-353q1 3 1 19q-3 110 -77 178.5t-191 68.5q-116 0 -211 -75t-149.5 -208t-54.5 -296q0 -151 73.5 -239t199.5 -88q112 0 200.5 62.5t122.5 165.5h356 q-44 -242 -237.5 -388.5t-469.5 -146.5q-282 0 -450 167t-168 446z" />
<glyph unicode="D" horiz-adv-x="1561" d="M88 0l306 1443h569q264 0 417.5 -151t153.5 -419q0 -251 -95 -449.5t-268.5 -311t-394.5 -112.5h-688zM521 294h210q188 0 307 146.5t119 389.5q0 147 -77 233t-213 86h-166z" />
<glyph unicode="E" horiz-adv-x="1302" d="M87 0l307 1443h989l-64 -295h-621l-61 -288h584l-57 -270h-584l-63 -295h622l-63 -295h-989z" />
<glyph unicode="F" horiz-adv-x="1269" d="M87 0l307 1443h981l-63 -295h-614l-70 -329h558l-60 -281h-558l-114 -538h-367z" />
<glyph unicode="G" horiz-adv-x="1588" d="M171 579q0 263 102 469t285.5 320t417.5 114q163 0 301.5 -64t219.5 -174t83 -240q1 -14 -1 -33h-353q-3 87 -80 144t-192 57q-177 0 -293.5 -161.5t-116.5 -410.5q0 -151 76 -240t206 -89q125 0 212.5 63.5t108.5 169.5l2 13h-258l53 253h613l-35 -180 q-58 -306 -244.5 -467.5t-480.5 -161.5q-283 0 -454.5 169t-171.5 449z" />
<glyph unicode="H" horiz-adv-x="1649" d="M87 0l307 1443h367l-120 -566h574l121 566h367l-307 -1443h-368l123 582h-574l-124 -582h-366z" />
<glyph unicode="I" horiz-adv-x="707" d="M87 0l307 1443h367l-307 -1443h-367z" />
<glyph unicode="J" horiz-adv-x="1295" d="M78 400q0 22 3 43h351v-13q1 -70 43 -112t114 -42q146 0 185 186l209 981h366l-218 -1027q-47 -221 -187 -338t-362 -117q-229 0 -368 121q-136 119 -136 312v6z" />
<glyph unicode="K" horiz-adv-x="1509" d="M87 0l307 1443h366l-130 -609h19l601 609h422l-653 -660l347 -783h-409l-246 570l-173 -172l-84 -398h-367z" />
<glyph unicode="L" horiz-adv-x="1247" d="M87 0l307 1443h367l-243 -1140h613l-64 -303h-980z" />
<glyph unicode="M" horiz-adv-x="1924" d="M87 0l307 1443h425l159 -882h19l536 882h445l-307 -1443h-339l193 911h-18l-491 -800h-226l-151 800h-18l-194 -911h-340z" />
<glyph unicode="N" horiz-adv-x="1600" d="M87 0l307 1443h260l450 -842h19l179 842h352l-307 -1443h-256l-456 834h-19l-177 -834h-352z" />
<glyph unicode="O" horiz-adv-x="1638" d="M170 581q0 196 61.5 365t167.5 286t252.5 183.5t313.5 66.5q149 0 271.5 -47.5t203 -130.5t124.5 -196.5t44 -245.5q0 -197 -61 -366t-167 -286t-252.5 -183t-312.5 -66q-147 0 -269 47.5t-204 130.5t-127 196.5t-45 245.5zM544 606q0 -152 76.5 -243.5t204.5 -91.5 q170 0 290 163.5t120 401.5q0 152 -77 242.5t-204 90.5q-111 0 -205.5 -74.5t-149.5 -204t-55 -284.5z" />
<glyph unicode="P" horiz-adv-x="1402" d="M89 0l305 1443h538q234 0 369 -118.5t135 -316.5q0 -269 -176.5 -427t-472.5 -158h-242l-90 -423h-366zM603 700h183q127 0 204 76.5t77 198.5q0 92 -54.5 139t-156.5 47h-155z" />
<glyph unicode="Q" horiz-adv-x="1638" d="M170 581q0 196 61.5 365t167.5 286t252.5 183.5t313.5 66.5q149 0 271.5 -47t203 -130.5t124.5 -197t44 -245.5q0 -237 -85.5 -428t-238.5 -311l112 -255h-339l-52 117q-92 -24 -190 -24q-147 0 -269 47.5t-204 130t-127 196.5t-45 246zM539 604q0 -154 78 -246.5 t207 -92.5q34 0 63 7l-102 235h317l22 -44q116 149 116 374q0 155 -78 247t-207 92q-113 0 -208.5 -75.5t-151.5 -207.5t-56 -289z" />
<glyph unicode="R" horiz-adv-x="1459" d="M87 0l307 1443h609q203 0 333 -118t130 -301q0 -158 -92 -291t-249 -191l194 -542h-394l-163 505h-200l-108 -505h-367zM616 764h219q118 0 190 64t72 165q0 84 -51.5 128.5t-145.5 44.5h-197z" />
<glyph unicode="S" horiz-adv-x="1407" d="M101 416h350q10 -78 84 -127.5t176 -49.5q108 0 175.5 45t67.5 117q0 54 -43 89t-148 67l-157 47q-167 50 -257 154t-90 250q0 205 170 339.5t429 134.5q254 0 411.5 -127.5t159.5 -331.5h-339q-7 79 -75.5 130.5t-169.5 51.5q-92 0 -154.5 -44t-62.5 -110 q0 -55 41 -94.5t132 -66.5l158 -46q187 -55 273 -149t86 -244q0 -222 -173.5 -356t-458.5 -134q-260 0 -420 122.5t-165 332.5z" />
<glyph unicode="T" horiz-adv-x="1380" d="M252 1148l63 295h1198l-63 -295h-415l-244 -1148h-367l243 1148h-415z" />
<glyph unicode="U" horiz-adv-x="1585" d="M198 440q0 63 13 125l186 878h368l-185 -872q-10 -47 -10 -91q1 -96 66.5 -151.5t171.5 -55.5q108 0 180 64t97 185l195 921h368l-211 -1002q-48 -226 -218 -353t-423 -127q-273 0 -435.5 133t-162.5 346z" />
<glyph unicode="V" horiz-adv-x="1528" d="M297 1443h401l57 -1060h19l491 1060h414l-759 -1443h-464z" />
<glyph unicode="W" horiz-adv-x="2112" d="M310 1443h375l-6 -957h18l435 957h289l40 -957h18l394 957h377l-682 -1443h-351l-55 884h-18l-422 -884h-341z" />
<glyph unicode="X" horiz-adv-x="1549" d="M5 0l614 741l-303 702h411l191 -462h19l342 462h408l-628 -735l318 -708h-407l-196 446h-19l-352 -446h-398z" />
<glyph unicode="Y" horiz-adv-x="1507" d="M297 1443h383l159 -591h19l405 591h396l-700 -953l-103 -490h-368l105 496z" />
<glyph unicode="Z" horiz-adv-x="1399" d="M48 0l50 233l845 896l1 19h-642l63 295h1106l-50 -233l-844 -896l-1 -19h672l-62 -295h-1138z" />
<glyph unicode="[" horiz-adv-x="929" d="M93 -312l392 1842h613l-55 -256h-273l-283 -1329h273l-54 -257h-613z" />
<glyph unicode="\" horiz-adv-x="857" d="M285 1530h328l52 -1842h-328z" />
<glyph unicode="]" horiz-adv-x="929" d="M-76 -312l55 257h273l283 1329h-274l55 256h613l-392 -1842h-613z" />
<glyph unicode="^" horiz-adv-x="1109" d="M159 769l470 635h296l207 -635h-298l-93 390h-19l-247 -390h-316z" />
<glyph unicode="_" horiz-adv-x="960" d="M-160 -373l56 266h956l-56 -266h-956z" />
<glyph unicode="`" horiz-adv-x="1059" d="M502 1647h344l169 -359h-299z" />
<glyph unicode="a" horiz-adv-x="1241" d="M71 286q0 171 134.5 271.5t370.5 107.5l257 7l14 67q5 30 5 35q0 48 -43 76.5t-114 28.5q-126 0 -167 -83h-324q34 157 174.5 250t341.5 93q214 0 346 -92t132 -242q0 -47 -9 -90l-153 -715h-343l28 134h-19q-43 -69 -126 -110t-178 -41q-140 0 -233.5 86.5t-93.5 216.5z M414 337q0 -48 40 -78t103 -30q78 0 139 45.5t76 113.5l18 83l-197 -6q-83 -3 -131 -37.5t-48 -90.5z" />
<glyph unicode="b" horiz-adv-x="1383" d="M57 0l325 1530h354l-123 -575l21 3q111 172 329 172q168 0 271 -114t103 -309q0 -154 -42.5 -289.5t-116 -230.5t-174.5 -149.5t-215 -54.5q-119 0 -210 60t-116 157h-19l-43 -200h-344zM519 477q0 -101 50.5 -156t129.5 -55q113 0 192.5 110t79.5 271q0 100 -50 154.5 t-128 54.5q-113 0 -193.5 -113t-80.5 -266z" />
<glyph unicode="c" horiz-adv-x="1247" d="M121 443q0 198 77 356t221.5 249t331.5 91q108 0 198.5 -33.5t149 -88.5t92 -122.5t36.5 -139.5v-12.5v-16v-13.5h-329q-1 73 -48 113t-121 40q-116 0 -187.5 -114.5t-71.5 -287.5q0 -108 50.5 -162.5t124.5 -54.5q73 0 125 39t74 113h331q-26 -182 -172.5 -303.5 t-376.5 -121.5q-233 0 -369 127t-136 342z" />
<glyph unicode="d" horiz-adv-x="1383" d="M116 411q0 154 43.5 288.5t118 228.5t178 148t220.5 54q121 0 201 -56t107 -145h20l127 601h355l-325 -1530h-345l33 155h-19q-125 -172 -337 -172q-169 0 -273 114.5t-104 313.5zM483 471q0 -101 51 -157.5t129 -56.5q112 0 192.5 113t80.5 266q0 100 -51 155.5 t-129 55.5q-114 0 -193.5 -108t-79.5 -268z" />
<glyph unicode="e" horiz-adv-x="1290" d="M124 456q0 305 171 494t445 189q216 0 355.5 -131t139.5 -342q0 -85 -20 -187h-765q-1 -4 -1 -21q0 -110 58.5 -169.5t153.5 -59.5q71 0 120 28t69 77h332q-41 -165 -186.5 -262.5t-356.5 -97.5q-234 0 -374.5 129.5t-140.5 352.5zM486 681h423q3 18 3 36q0 74 -50 122 t-131 48q-88 0 -155 -56.5t-90 -149.5z" />
<glyph unicode="f" horiz-adv-x="886" d="M140 835l56 263h176l28 133q31 152 133 221.5t284 69.5q133 0 220 -26l-50 -228q-39 11 -118 11q-109 0 -129 -96l-18 -85h227l-56 -263h-218l-178 -835h-355l178 835h-180z" />
<glyph unicode="g" horiz-adv-x="1369" d="M16 -74h345q3 -49 58 -79t146 -30q195 0 231 166l41 193h-19q-104 -152 -324 -152q-166 0 -270.5 113t-104.5 297q0 191 73.5 351.5t200 252.5t277.5 92q114 0 200 -56.5t115 -150.5h19l42 190h345l-247 -1154q-38 -178 -196 -278t-404 -100q-241 0 -388 97 q-140 93 -140 234v14zM480 478q0 -98 49 -156t131 -58q111 0 190.5 109.5t79.5 262.5q0 96 -49.5 153.5t-132.5 57.5q-113 0 -190.5 -106t-77.5 -263z" />
<glyph unicode="h" horiz-adv-x="1346" d="M57 0l323 1519h353l-124 -574h19q117 189 338 189q154 0 243.5 -87.5t89.5 -226.5q0 -62 -15 -134l-144 -686h-352l132 631q9 45 9 76q0 70 -44.5 111t-116.5 41q-83 0 -141 -55t-77 -145l-140 -659h-353z" />
<glyph unicode="i" horiz-adv-x="643" d="M62 0l236 1113h354l-237 -1113h-353zM337 1393q0 71 54 117.5t146 46.5t145.5 -42t53.5 -109q0 -72 -53.5 -118t-145.5 -46t-146 42t-54 109z" />
<glyph unicode="j" horiz-adv-x="643" d="M-196 -363l57 255q24 -7 69 -7q107 0 129 103l239 1125h354l-246 -1161q-35 -164 -147 -247t-289 -83q-87 0 -166 15zM337 1393q0 71 54 117.5t145 46.5q92 0 146 -42t54 -109q0 -71 -54 -117.5t-146 -46.5q-91 0 -145 42t-54 109z" />
<glyph unicode="k" horiz-adv-x="1275" d="M57 0l325 1530h353l-172 -818h19l396 401h399l-509 -489l309 -624h-385l-210 434l-100 -94l-71 -340h-354z" />
<glyph unicode="l" horiz-adv-x="634" d="M57 0l325 1530h355l-326 -1530h-354z" />
<glyph unicode="m" horiz-adv-x="1951" d="M50 0l236 1113h344l-41 -188h19q55 95 140 150t184 55q109 0 182.5 -57.5t99.5 -144.5h19q132 202 360 202q136 0 223 -90t87 -225q0 -62 -15 -134l-143 -681h-353l132 631q9 44 9 76q0 64 -37 103.5t-99 39.5q-68 0 -120.5 -52t-71.5 -142l-138 -656h-338l132 631 q9 44 9 76q0 64 -37 103.5t-99 39.5q-68 0 -120.5 -51.5t-71.5 -140.5l-139 -658h-353z" />
<glyph unicode="n" horiz-adv-x="1331" d="M50 0l238 1113h343l-39 -181h19q56 93 144 145.5t201 52.5q150 0 238.5 -90t88.5 -232q0 -62 -15 -134l-143 -674h-352l132 619q8 39 8 76q0 68 -41.5 111.5t-114.5 43.5q-81 0 -138.5 -56.5t-76.5 -146.5l-139 -647h-353z" />
<glyph unicode="o" horiz-adv-x="1344" d="M124 471q0 188 84.5 341t233.5 240t332 87q235 0 376 -136t141 -362q0 -141 -49.5 -264.5t-135 -212t-205.5 -139.5t-257 -51q-235 0 -377.5 136t-142.5 361zM491 474q0 -107 44.5 -167.5t122.5 -60.5q108 0 186 115t78 273q0 111 -43 173t-121 62q-111 0 -189 -115.5 t-78 -279.5z" />
<glyph unicode="p" horiz-adv-x="1376" d="M-28 -368l315 1481h345l-33 -155h19q125 172 338 172q169 0 272 -114t103 -309q0 -206 -73 -372t-200 -259t-283 -93q-119 0 -200 59.5t-108 157.5h-19l-122 -568h-354zM512 477q0 -100 51 -155.5t129 -55.5q113 0 192.5 110t79.5 271q0 100 -50 154.5t-128 54.5 q-112 0 -193 -113t-81 -266z" />
<glyph unicode="q" horiz-adv-x="1381" d="M116 410q0 154 43.5 288t118 228.5t177.5 149t220 54.5q124 0 210.5 -57t113.5 -144h19l39 184h345l-315 -1481h-354l111 523h-17q-124 -172 -337 -172q-168 0 -271 115t-103 312zM483 470q0 -102 50 -157.5t128 -55.5q112 0 193 113t81 266q0 101 -51 156t-130 55 q-113 0 -192 -109t-79 -268z" />
<glyph unicode="r" horiz-adv-x="969" d="M47 0l238 1113h346l-32 -157h18q41 82 111 128t156 46q89 0 149 -27l-69 -308q-83 36 -184 36q-200 0 -250 -234l-128 -597h-355z" />
<glyph unicode="s" horiz-adv-x="1201" d="M74 329h335q8 -51 57.5 -83.5t121.5 -32.5q73 0 115 26t42 71q0 30 -22 50.5t-79 40.5l-177 62q-135 47 -199.5 121.5t-64.5 183.5q0 169 132.5 270t352.5 101q215 0 346 -93.5t136 -248.5h-318q-8 46 -52.5 74t-111.5 28q-65 0 -106.5 -26.5t-41.5 -69.5q0 -31 24.5 -53 t82.5 -42l196 -69q133 -46 194 -115.5t61 -173.5q0 -170 -139 -273t-368 -103t-372 98t-145 257z" />
<glyph unicode="t" horiz-adv-x="900" d="M144 835l58 263h173l58 270h355l-58 -270h230l-58 -263h-228l-94 -441q-6 -38 -6 -51q0 -90 115 -90q43 0 93 6l-53 -247q-53 -14 -184 -14q-157 0 -249.5 64.5t-92.5 176.5q0 44 11 96l105 500h-175z" />
<glyph unicode="u" horiz-adv-x="1332" d="M121 300q0 54 15 141l141 672h355l-131 -615q-7 -35 -7 -73q0 -161 155 -161q83 0 137 54.5t75 151.5l137 643h354l-235 -1113h-344l37 175h-19q-112 -201 -325 -201q-155 0 -250 88t-95 238z" />
<glyph unicode="v" horiz-adv-x="1222" d="M196 1113h358l30 -789h19l355 789h376l-605 -1113h-410z" />
<glyph unicode="w" horiz-adv-x="1814" d="M211 1113h350l-18 -761h19l326 761h340l8 -763h20l300 763h354l-524 -1113h-385l-16 732h-19l-326 -732h-375z" />
<glyph unicode="x" horiz-adv-x="1251" d="M-22 0l452 554l-217 559h387l102 -342h19l235 342h389l-458 -559l223 -554h-374l-115 334h-19l-245 -334h-379z" />
<glyph unicode="y" horiz-adv-x="1258" d="M-24 -404l57 268q12 -3 70 -3q176 0 215 99l12 33l-127 1120h363l30 -809h19l370 809h377l-600 -1123q-113 -215 -262.5 -306t-382.5 -91q-129 0 -141 3z" />
<glyph unicode="z" horiz-adv-x="1190" d="M29 0l40 189l649 639l1 19h-499l58 266h936l-47 -217l-596 -611l-1 -19h481l-57 -266h-965z" />
<glyph unicode="{" horiz-adv-x="929" d="M120 454l66 311q112 0 168.5 45.5t79.5 160.5l37 176q42 211 159 297t343 86h124l-54 -250h-43q-90 0 -135 -43.5t-69 -153.5l-42 -191q-27 -121 -113.5 -210t-214.5 -100l-5 -19q118 -13 168 -62.5t50 -127.5q0 -24 -10 -78l-34 -160q-12 -60 -12 -91q0 -58 31.5 -82.5 t100.5 -24.5h44l-53 -249h-124q-96 0 -166 22.5t-109.5 63t-57.5 89t-18 106.5q0 51 15 117l35 163q12 55 12 87q0 60 -39 89t-134 29z" />
<glyph unicode="|" horiz-adv-x="857" d="M114 -312l392 1842h329l-391 -1842h-330z" />
<glyph unicode="}" horiz-adv-x="929" d="M-75 -312l53 251h44q90 0 135 43.5t69 153.5l41 191q27 121 113.5 210t215.5 100l4 19q-217 24 -217 190q0 33 10 78l33 160q12 53 12 91q0 58 -31 82.5t-101 24.5h-43l53 248h123q96 0 166.5 -22.5t109.5 -63t57 -88.5t18 -106q0 -55 -14 -117l-36 -164q-11 -49 -11 -87 q0 -60 38.5 -88.5t133.5 -28.5l-65 -311q-112 0 -168.5 -45.5t-80.5 -160.5l-36 -176q-43 -211 -159.5 -297.5t-342.5 -86.5h-124z" />
<glyph unicode="~" horiz-adv-x="1236" d="M25 548q38 222 135 336t241 114q59 0 109.5 -24.5t85 -59.5t65 -70t62.5 -59.5t63 -24.5q90 0 121 157h260q-76 -451 -370 -451q-59 0 -109.5 24.5t-85 59t-65.5 69.5t-64 59.5t-67 24.5q-89 0 -121 -155h-260z" />
<glyph unicode="&#xa1;" horiz-adv-x="778" d="M41 -314l238 970h321l-175 -970h-384zM312 975q0 84 54.5 136.5t149.5 52.5q93 0 148.5 -50.5t55.5 -124.5q0 -83 -55 -136t-149 -53t-149 50.5t-55 124.5z" />
<glyph unicode="&#xa2;" d="M249 578q0 183 66.5 333.5t191 246t287.5 115.5l38 178h280l-45 -202q131 -46 206.5 -144t80.5 -211q1 -13 1 -42h-329q-2 73 -48.5 113t-120.5 40q-116 0 -187.5 -116t-71.5 -289q0 -108 50.5 -163t124.5 -55q73 0 125 39t74 113h331q-25 -167 -151.5 -284.5 t-325.5 -137.5l-38 -184h-280l45 213q-142 48 -223 162.5t-81 274.5z" />
<glyph unicode="&#xa3;" d="M76 8l63 297q142 5 246.5 88t125.5 219q0 2 -0.5 9t-0.5 11h-309l51 240h247q-22 141 -22 182q0 198 147 313t401 115q130 0 262.5 -26t199.5 -56l-58 -271q-48 27 -140.5 47t-185.5 20q-127 0 -200.5 -53.5t-73.5 -163.5q0 -41 7 -107h363l-50 -240h-293v-14 q-7 -113 -65 -188.5t-158 -105.5l-3 -19h666l-64 -297h-1156z" />
<glyph unicode="&#xa4;" d="M140 294l188 155q-42 93 -42 196q0 142 77 260l-112 139l239 196l113 -142q79 29 165 29q155 0 280 -90l191 158l157 -198l-188 -155q42 -93 42 -197q0 -141 -76 -260l110 -138l-238 -196l-113 141q-78 -29 -165 -29q-155 0 -280 90l-192 -158zM549 645q0 -89 65 -154.5 t154 -65.5t154 65.5t65 154.5t-65 155t-154 66t-154 -66t-65 -155z" />
<glyph unicode="&#xa5;" d="M235 182l39 182h268l26 120h-269l39 182h181l-245 777h383l159 -591h19l405 591h395l-571 -777h176l-38 -182h-268l-25 -120h267l-38 -182h-267l-39 -182h-367l39 182h-269z" />
<glyph unicode="&#xa6;" horiz-adv-x="857" d="M114 -312l154 722h329l-153 -722h-330zM350 799l156 731h329l-155 -731h-330z" />
<glyph unicode="&#xa7;" horiz-adv-x="1032" d="M-8 56h292q5 -51 47.5 -85t104.5 -34q63 0 104.5 31.5t41.5 78.5q0 69 -90 112l-178 90q-224 111 -224 296q0 109 72 186.5t198 104.5l1 20q-77 55 -109 109t-32 128q0 157 127.5 256.5t326.5 99.5q191 0 311 -97t127 -262h-290q-3 55 -45 88t-105 33q-61 0 -100.5 -30.5 t-39.5 -76.5q0 -66 93 -112l166 -88q234 -120 234 -300q0 -106 -74.5 -187t-194.5 -104v-18q75 -55 106.5 -109t31.5 -127q0 -157 -129 -258.5t-328 -101.5q-126 0 -226 43.5t-159 125.5t-60 188zM395 603q0 -73 100 -123l113 -61q50 17 82 52.5t32 75.5q0 75 -96 123 l-113 61q-52 -15 -85 -50.5t-33 -77.5z" />
<glyph unicode="&#xa8;" horiz-adv-x="1059" d="M327 1432q0 72 48.5 118t124.5 46t124.5 -46t48.5 -118t-48.5 -118t-124.5 -46t-124.5 46t-48.5 118zM828 1432q0 72 48.5 118t124.5 46t125 -46t49 -118t-49 -118t-125 -46t-124.5 46t-48.5 118z" />
<glyph unicode="&#xa9;" horiz-adv-x="1743" d="M147 632q0 165 65 316t174.5 260t261 173.5t317.5 64.5q161 0 303 -57.5t243 -157t159.5 -239t58.5 -298.5q0 -166 -65 -317t-174.5 -260t-261 -173.5t-317.5 -64.5q-214 0 -389 98.5t-275 271t-100 383.5zM324 636q0 -125 45 -234t123 -186.5t188 -122.5t235 -45 q128 0 245.5 51.5t203.5 138t137 205t51 247.5q0 167 -76.5 301.5t-211.5 210.5t-303 76q-128 0 -245.5 -51.5t-203.5 -138t-137 -205t-51 -247.5zM579 612q0 190 114.5 315t287.5 125q149 0 242 -88.5t81 -218.5h-216q1 60 -29 94t-83 34q-74 0 -125.5 -77.5t-51.5 -189.5 q0 -73 31.5 -112t89.5 -39q83 0 123 83h223q-33 -125 -125.5 -193.5t-227.5 -68.5q-149 0 -241.5 93t-92.5 243z" />
<glyph unicode="&#xaa;" horiz-adv-x="1077" d="M178 757q0 144 105.5 226t291.5 84l224 3q5 20 12 50q6 28 6 34q0 37 -30.5 59t-81.5 22q-42 0 -73 -16t-44 -43h-296q37 142 144.5 216t276.5 74q188 0 303 -82t115 -216q0 -31 -8 -73l-125 -589h-309l19 99h-18q-37 -53 -98.5 -82.5t-132.5 -29.5q-126 0 -203.5 73 t-77.5 191zM492 799q0 -40 29.5 -64t78.5 -24q55 0 96 34.5t53 90.5l14 64l-135 -3q-64 -1 -100 -27.5t-36 -70.5z" />
<glyph unicode="&#xab;" horiz-adv-x="1477" d="M177 563l2 8l406 408h339l-427 -422l-2 -9l247 -395h-304zM706 563l2 8l420 408h325l-436 -430l-1 -8l254 -388h-303z" />
<glyph unicode="&#xac;" d="M192 436l64 301h1096l-149 -703h-312l86 402h-785z" />
<glyph unicode="&#xad;" horiz-adv-x="1006" d="M181 425l68 316h658l-68 -316h-658z" />
<glyph unicode="&#xae;" horiz-adv-x="1260" d="M218 967q0 108 42 205.5t113.5 168t170.5 112t209 41.5q234 0 384 -148t150 -379q0 -144 -71 -265t-194 -191t-269 -70q-235 0 -385 147.5t-150 378.5zM367 967q0 -172 106.5 -279t278.5 -107q160 0 273 112.5t113 273.5q0 172 -106.5 279t-278.5 107 q-161 0 -273.5 -112.5t-112.5 -273.5zM497 734l102 482h251q67 0 113.5 -44t46.5 -107q0 -58 -36 -101.5t-94 -59.5l77 -170h-154l-67 157h-67l-33 -157h-139zM691 993h92q37 0 57.5 16.5t20.5 45.5q0 51 -61 51h-85z" />
<glyph unicode="&#xaf;" horiz-adv-x="1059" d="M345 1327l42 198h767l-42 -198h-767z" />
<glyph unicode="&#xb0;" horiz-adv-x="935" d="M237 1088q0 158 108.5 265.5t270.5 107.5q161 0 270 -107.5t109 -265.5t-109 -266t-270 -108q-162 0 -270.5 107.5t-108.5 266.5zM442 1088q0 -77 48.5 -127.5t125.5 -50.5t126 50t49 128t-48.5 127.5t-126.5 49.5q-77 0 -125.5 -50t-48.5 -127z" />
<glyph unicode="&#xb1;" d="M165 55l54 255h986l-54 -255h-986zM290 645l55 258h342l46 213h304l-46 -213h343l-55 -258h-343l-45 -212h-304l45 212h-342z" />
<glyph unicode="&#xb2;" horiz-adv-x="949" d="M207 894l47 218l304 208q136 91 185.5 139t49.5 91q0 35 -22.5 55.5t-60.5 20.5q-44 0 -75.5 -28.5t-40.5 -77.5v-1h-282q7 148 128 243.5t300 95.5q161 0 261 -78t100 -203q0 -85 -54.5 -159t-184.5 -162q-10 -7 -49 -32.5t-74.5 -48t-58.5 -33.5l-2 -13h338l-50 -235 h-759z" />
<glyph unicode="&#xb3;" horiz-adv-x="985" d="M247 1215h293q-5 -46 22 -74.5t75 -28.5q46 0 74 25t28 66q0 34 -26.5 55t-67.5 21h-99l44 197h107q51 0 82.5 24t31.5 61q0 32 -25 52.5t-65 20.5q-80 0 -105 -72h-284q27 136 139.5 216t276.5 80q160 0 262 -73t102 -187q0 -91 -66 -154.5t-164 -68.5l-1 -14 q80 -18 123.5 -69t43.5 -128q0 -131 -113.5 -214t-294.5 -83q-185 0 -298 100t-95 248z" />
<glyph unicode="&#xb4;" horiz-adv-x="1059" d="M415 1288l322 359h364l-367 -359h-319z" />
<glyph unicode="&#xb6;" horiz-adv-x="1653" d="M255 853q0 255 167.5 416.5t446.5 172.5l338 1l-366 -1716h-333l147 688q-187 25 -293.5 144.5t-106.5 293.5zM1021 -273l366 1716h332l-365 -1716h-333z" />
<glyph unicode="&#xb7;" horiz-adv-x="772" d="M253 723q0 88 55.5 145t150.5 57q93 0 149 -54.5t56 -131.5q0 -88 -55.5 -145t-149.5 -57q-93 0 -149.5 54.5t-56.5 131.5z" />
<glyph unicode="&#xb8;" horiz-adv-x="1059" d="M134 -458l31 142q64 -25 139 -25q85 0 85 52q0 57 -106 57h-59l20 126l90 140h207l-92 -142q148 -29 148 -167q0 -100 -73.5 -159t-197.5 -59q-114 0 -192 35z" />
<glyph unicode="&#xb9;" horiz-adv-x="801" d="M299 1416l56 264l264 151h317l-199 -937h-317l141 662h-14z" />
<glyph unicode="&#xba;" horiz-adv-x="1150" d="M209 915q0 242 151 396.5t387 154.5q207 0 322.5 -114t115.5 -317q0 -242 -148.5 -393.5t-385.5 -151.5q-207 0 -324.5 113t-117.5 312zM536 908q0 -85 32.5 -132t90.5 -47q82 0 140.5 93.5t58.5 224.5q0 85 -32 132.5t-90 47.5q-82 0 -141 -94.5t-59 -224.5z" />
<glyph unicode="&#xbb;" horiz-adv-x="1478" d="M100 153l435 430l2 8l-254 388h303l261 -409l-2 -8l-421 -409h-324zM629 153l428 422l1 9l-246 395h303l261 -409l-2 -8l-405 -409h-340z" />
<glyph unicode="&#xbc;" horiz-adv-x="2423" d="M321 1028l56 264l264 151h317l-199 -937h-317l141 662h-14zM540 0l581 756l458 687h331l-601 -760l-438 -683h-331zM1395 125l54 271q156 219 435 541h450l-123 -574h106l-51 -238h-106l-26 -125h-298l26 125h-467zM1706 350h214l81 378h-15q-77 -93 -126.5 -158 t-149.5 -206z" />
<glyph unicode="&#xbd;" horiz-adv-x="2419" d="M321 1028l56 264l264 151h317l-199 -937h-317l141 662h-14zM540 0l581 756l458 687h331l-601 -760l-438 -683h-331zM1476 0l47 218l304 208q136 91 185.5 139t49.5 91q0 35 -22.5 55.5t-60.5 20.5q-44 0 -75.5 -28.5t-40.5 -77.5v-1h-282q7 148 128 243.5t300 95.5 q161 0 261 -78t100 -203q0 -85 -54.5 -159t-184.5 -162q-10 -7 -49 -32.5t-74.5 -48t-58.5 -33.5l-2 -13h338l-50 -235h-759z" />
<glyph unicode="&#xbe;" horiz-adv-x="2554" d="M248 827h293q-5 -46 22 -74.5t75 -28.5q46 0 74 25t28 66q0 34 -26.5 55t-67.5 21h-99l44 197h107q51 0 82.5 24t31.5 61q0 32 -25 52.5t-65 20.5q-80 0 -105 -72h-284q27 136 139.5 216t276.5 80q160 0 262 -73t102 -187q0 -91 -66 -154.5t-164 -68.5l-1 -14 q80 -18 123.5 -69t43.5 -128q0 -131 -113.5 -214t-294.5 -83q-185 0 -298 100t-95 248zM672 0l581 756l458 687h331l-601 -760l-438 -683h-331zM1526 125l54 271q156 219 435 541h450l-123 -574h106l-51 -238h-106l-26 -125h-298l26 125h-467zM1837 350h214l81 378h-15 q-77 -93 -126.5 -158t-149.5 -206z" />
<glyph unicode="&#xbf;" horiz-adv-x="1189" d="M24 45q0 127 72 231.5t209 164.5q115 51 161 92t60 108l7 36h319l-9 -56q-20 -135 -73.5 -207t-169.5 -123q-123 -54 -171 -104t-48 -116q0 -55 42 -90t113 -35q64 0 113.5 39.5t65.5 105.5h325q-21 -185 -162.5 -301t-357.5 -116q-224 0 -360 103t-136 268zM542 969 q0 82 58 138.5t150 56.5q93 0 151 -47.5t58 -124.5q0 -84 -58.5 -139.5t-150.5 -55.5q-89 0 -148.5 48t-59.5 124z" />
<glyph unicode="&#xc0;" horiz-adv-x="1564" d="M-10 0l806 1443h446l166 -1443h-382l-23 317h-473l-162 -317h-378zM659 581h333l-39 536h-20zM711 1922h352l151 -326h-304z" />
<glyph unicode="&#xc1;" horiz-adv-x="1564" d="M-10 0l806 1443h446l166 -1443h-382l-23 317h-473l-162 -317h-378zM659 581h333l-39 536h-20zM873 1596l327 326h362l-374 -326h-315z" />
<glyph unicode="&#xc2;" horiz-adv-x="1564" d="M-10 0l806 1443h446l166 -1443h-382l-23 317h-473l-162 -317h-378zM607 1596l337 349h338l189 -349h-283l-85 193h-19l-167 -193h-310zM659 581h333l-39 536h-20z" />
<glyph unicode="&#xc3;" horiz-adv-x="1564" d="M-10 0l806 1443h446l166 -1443h-382l-23 317h-473l-162 -317h-378zM647 1609q17 138 93 222.5t184 84.5q55 0 103.5 -24.5t77.5 -53.5t61.5 -53.5t57.5 -24.5q73 0 86 118h206q-17 -138 -93.5 -222.5t-184.5 -84.5q-55 0 -103.5 24.5t-77.5 54t-61.5 54t-57.5 24.5 q-72 0 -86 -119h-205zM659 581h333l-39 536h-20z" />
<glyph unicode="&#xc4;" horiz-adv-x="1564" d="M-10 0l806 1443h446l166 -1443h-382l-23 317h-473l-162 -317h-378zM659 581h333l-39 536h-20zM660 1745q0 72 48.5 118t124.5 46t124.5 -46t48.5 -118t-48.5 -118t-124.5 -46t-124.5 46t-48.5 118zM1161 1745q0 72 48.5 118t124.5 46t125 -46t49 -118t-49 -118t-125 -46 t-124.5 46t-48.5 118z" />
<glyph unicode="&#xc5;" horiz-adv-x="1564" d="M-10 0l806 1443h446l166 -1443h-382l-23 317h-473l-162 -317h-378zM659 581h333l-39 536h-20zM840 1788q0 106 71.5 174t181.5 68t181 -68t71 -174q0 -107 -71 -176t-181 -69t-181.5 69t-71.5 176zM996 1787q0 -43 27 -70t69 -27q43 0 70 27.5t27 69.5q0 41 -27.5 68.5 t-69.5 27.5q-42 -1 -69 -28t-27 -68z" />
<glyph unicode="&#xc6;" horiz-adv-x="2108" d="M-10 0l873 1443h1337l-63 -295h-647l-61 -290h610l-58 -270h-610l-62 -293h646l-62 -295h-976l69 327h-432l-195 -327h-369zM706 592h337l122 575h-120z" />
<glyph unicode="&#xc7;" horiz-adv-x="1570" d="M169 574q0 263 103.5 470.5t288 322.5t418.5 115q167 0 305 -68t217 -186.5t79 -261.5q0 -37 -3 -58h-353q1 3 1 19q-3 110 -77 178.5t-191 68.5q-116 0 -211 -75t-149.5 -208t-54.5 -296q0 -151 73.5 -239t199.5 -88q112 0 200.5 62.5t122.5 165.5h356 q-40 -219 -205 -361.5t-405 -168.5l-51 -78q148 -29 148 -167q0 -100 -73.5 -159t-197.5 -59q-114 0 -192 35l31 142q64 -25 139 -25q85 0 85 52q0 57 -106 57h-59l20 126l50 78q-236 32 -372.5 194t-136.5 412z" />
<glyph unicode="&#xc8;" horiz-adv-x="1302" d="M87 0l307 1443h989l-64 -295h-621l-61 -288h584l-57 -270h-584l-63 -295h622l-63 -295h-989zM582 1922h352l151 -326h-304z" />
<glyph unicode="&#xc9;" horiz-adv-x="1302" d="M87 0l307 1443h989l-64 -295h-621l-61 -288h584l-57 -270h-584l-63 -295h622l-63 -295h-989zM744 1596l327 326h362l-374 -326h-315z" />
<glyph unicode="&#xca;" horiz-adv-x="1302" d="M87 0l307 1443h989l-64 -295h-621l-61 -288h584l-57 -270h-584l-63 -295h622l-63 -295h-989zM478 1596l337 349h338l189 -349h-283l-85 193h-19l-167 -193h-310z" />
<glyph unicode="&#xcb;" horiz-adv-x="1302" d="M87 0l307 1443h989l-64 -295h-621l-61 -288h584l-57 -270h-584l-63 -295h622l-63 -295h-989zM531 1745q0 72 48.5 118t124.5 46t124.5 -46t48.5 -118t-48.5 -118t-124.5 -46t-124.5 46t-48.5 118zM1032 1745q0 72 48.5 118t124.5 46t125 -46t49 -118t-49 -118t-125 -46 t-124.5 46t-48.5 118z" />
<glyph unicode="&#xcc;" horiz-adv-x="707" d="M87 0l307 1443h367l-307 -1443h-367zM271 1922h352l151 -326h-304z" />
<glyph unicode="&#xcd;" horiz-adv-x="707" d="M87 0l307 1443h367l-307 -1443h-367zM433 1596l327 326h362l-374 -326h-315z" />
<glyph unicode="&#xce;" horiz-adv-x="707" d="M87 0l307 1443h367l-307 -1443h-367zM167 1596l337 349h338l189 -349h-283l-85 193h-19l-167 -193h-310z" />
<glyph unicode="&#xcf;" horiz-adv-x="707" d="M87 0l307 1443h367l-307 -1443h-367zM220 1745q0 72 48.5 118t124.5 46t124.5 -46t48.5 -118t-48.5 -118t-124.5 -46t-124.5 46t-48.5 118zM721 1745q0 72 48.5 118t124.5 46t125 -46t49 -118t-49 -118t-125 -46t-124.5 46t-48.5 118z" />
<glyph unicode="&#xd0;" horiz-adv-x="1561" d="M79 600l53 252h137l125 591h569q264 0 417.5 -151t153.5 -419q0 -251 -95 -449.5t-268.5 -311t-394.5 -112.5h-688l127 600h-136zM521 294h210q188 0 307 146.5t119 389.5q0 147 -77 233t-213 86h-166l-63 -297h192l-53 -252h-192z" />
<glyph unicode="&#xd1;" horiz-adv-x="1600" d="M87 0l307 1443h260l450 -842h19l179 842h352l-307 -1443h-256l-456 834h-19l-177 -834h-352zM620 1609q17 138 93 222.5t184 84.5q55 0 103.5 -24.5t77.5 -53.5t61.5 -53.5t57.5 -24.5q73 0 86 118h206q-17 -138 -93.5 -222.5t-184.5 -84.5q-55 0 -103.5 24.5t-77.5 54 t-61.5 54t-57.5 24.5q-72 0 -86 -119h-205z" />
<glyph unicode="&#xd2;" horiz-adv-x="1638" d="M170 581q0 196 61.5 365t167.5 286t252.5 183.5t313.5 66.5q149 0 271.5 -47.5t203 -130.5t124.5 -196.5t44 -245.5q0 -197 -61 -366t-167 -286t-252.5 -183t-312.5 -66q-147 0 -269 47.5t-204 130.5t-127 196.5t-45 245.5zM544 606q0 -152 76.5 -243.5t204.5 -91.5 q170 0 290 163.5t120 401.5q0 152 -77 242.5t-204 90.5q-111 0 -205.5 -74.5t-149.5 -204t-55 -284.5zM662 1922h352l151 -326h-304z" />
<glyph unicode="&#xd3;" horiz-adv-x="1638" d="M170 581q0 196 61.5 365t167.5 286t252.5 183.5t313.5 66.5q149 0 271.5 -47.5t203 -130.5t124.5 -196.5t44 -245.5q0 -197 -61 -366t-167 -286t-252.5 -183t-312.5 -66q-147 0 -269 47.5t-204 130.5t-127 196.5t-45 245.5zM544 606q0 -152 76.5 -243.5t204.5 -91.5 q170 0 290 163.5t120 401.5q0 152 -77 242.5t-204 90.5q-111 0 -205.5 -74.5t-149.5 -204t-55 -284.5zM824 1596l327 326h362l-374 -326h-315z" />
<glyph unicode="&#xd4;" horiz-adv-x="1638" d="M170 581q0 196 61.5 365t167.5 286t252.5 183.5t313.5 66.5q149 0 271.5 -47.5t203 -130.5t124.5 -196.5t44 -245.5q0 -197 -61 -366t-167 -286t-252.5 -183t-312.5 -66q-147 0 -269 47.5t-204 130.5t-127 196.5t-45 245.5zM544 606q0 -152 76.5 -243.5t204.5 -91.5 q170 0 290 163.5t120 401.5q0 152 -77 242.5t-204 90.5q-111 0 -205.5 -74.5t-149.5 -204t-55 -284.5zM558 1596l337 349h338l189 -349h-283l-85 193h-19l-167 -193h-310z" />
<glyph unicode="&#xd5;" horiz-adv-x="1638" d="M170 581q0 196 61.5 365t167.5 286t252.5 183.5t313.5 66.5q149 0 271.5 -47.5t203 -130.5t124.5 -196.5t44 -245.5q0 -197 -61 -366t-167 -286t-252.5 -183t-312.5 -66q-147 0 -269 47.5t-204 130.5t-127 196.5t-45 245.5zM544 606q0 -152 76.5 -243.5t204.5 -91.5 q170 0 290 163.5t120 401.5q0 152 -77 242.5t-204 90.5q-111 0 -205.5 -74.5t-149.5 -204t-55 -284.5zM598 1609q17 138 93 222.5t184 84.5q55 0 103.5 -24.5t77.5 -53.5t61.5 -53.5t57.5 -24.5q73 0 86 118h206q-17 -138 -93.5 -222.5t-184.5 -84.5q-55 0 -103.5 24.5 t-77.5 54t-61.5 54t-57.5 24.5q-72 0 -86 -119h-205z" />
<glyph unicode="&#xd6;" horiz-adv-x="1638" d="M170 581q0 196 61.5 365t167.5 286t252.5 183.5t313.5 66.5q149 0 271.5 -47.5t203 -130.5t124.5 -196.5t44 -245.5q0 -197 -61 -366t-167 -286t-252.5 -183t-312.5 -66q-147 0 -269 47.5t-204 130.5t-127 196.5t-45 245.5zM544 606q0 -152 76.5 -243.5t204.5 -91.5 q170 0 290 163.5t120 401.5q0 152 -77 242.5t-204 90.5q-111 0 -205.5 -74.5t-149.5 -204t-55 -284.5zM611 1745q0 72 48.5 118t124.5 46t124.5 -46t48.5 -118t-48.5 -118t-124.5 -46t-124.5 46t-48.5 118zM1112 1745q0 72 48.5 118t124.5 46t125 -46t49 -118t-49 -118 t-125 -46t-124.5 46t-48.5 118z" />
<glyph unicode="&#xd7;" d="M208 342l352 269l-230 324l255 177l223 -312l355 268l170 -241l-354 -269l236 -333l-255 -177l-230 322l-352 -269z" />
<glyph unicode="&#xd8;" horiz-adv-x="1614" d="M170 581q0 196 61.5 365t167.5 286t252.5 183.5t313.5 66.5q163 0 298 -58l55 91l114 -56l-60 -97q114 -84 175 -213.5t61 -286.5q0 -197 -61 -366t-167 -286t-252.5 -183t-312.5 -66q-150 0 -274 49l-53 -87l-102 62l48 80q-127 82 -195.5 216.5t-68.5 299.5zM544 606 q0 -149 74 -240l469 770q-57 33 -133 33q-111 0 -205.5 -74.5t-149.5 -204t-55 -284.5zM715 292q49 -21 110 -21q170 0 290 163.5t120 401.5q0 127 -55 213z" />
<glyph unicode="&#xd9;" horiz-adv-x="1585" d="M198 440q0 63 13 125l186 878h368l-185 -872q-10 -47 -10 -91q1 -96 66.5 -151.5t171.5 -55.5q108 0 180 64t97 185l195 921h368l-211 -1002q-48 -226 -218 -353t-423 -127q-273 0 -435.5 133t-162.5 346zM709 1922h352l151 -326h-304z" />
<glyph unicode="&#xda;" horiz-adv-x="1585" d="M198 440q0 63 13 125l186 878h368l-185 -872q-10 -47 -10 -91q1 -96 66.5 -151.5t171.5 -55.5q108 0 180 64t97 185l195 921h368l-211 -1002q-48 -226 -218 -353t-423 -127q-273 0 -435.5 133t-162.5 346zM871 1596l327 326h362l-374 -326h-315z" />
<glyph unicode="&#xdb;" horiz-adv-x="1585" d="M198 440q0 63 13 125l186 878h368l-185 -872q-10 -47 -10 -91q1 -96 66.5 -151.5t171.5 -55.5q108 0 180 64t97 185l195 921h368l-211 -1002q-48 -226 -218 -353t-423 -127q-273 0 -435.5 133t-162.5 346zM605 1596l337 349h338l189 -349h-283l-85 193h-19l-167 -193 h-310z" />
<glyph unicode="&#xdc;" horiz-adv-x="1585" d="M198 440q0 63 13 125l186 878h368l-185 -872q-10 -47 -10 -91q1 -96 66.5 -151.5t171.5 -55.5q108 0 180 64t97 185l195 921h368l-211 -1002q-48 -226 -218 -353t-423 -127q-273 0 -435.5 133t-162.5 346zM658 1745q0 72 48.5 118t124.5 46t124.5 -46t48.5 -118 t-48.5 -118t-124.5 -46t-124.5 46t-48.5 118zM1159 1745q0 72 48.5 118t124.5 46t125 -46t49 -118t-49 -118t-125 -46t-124.5 46t-48.5 118z" />
<glyph unicode="&#xdd;" horiz-adv-x="1507" d="M297 1443h383l159 -591h19l405 591h396l-700 -953l-103 -490h-368l105 496zM829 1596l327 326h362l-374 -326h-315z" />
<glyph unicode="&#xde;" horiz-adv-x="1436" d="M88 0l307 1443h368l-47 -219h238q196 0 324 -117t128 -296q0 -151 -75 -275t-212 -197t-308 -73h-301l-56 -266h-366zM569 546h206q121 0 194 62t73 165q0 81 -51.5 124.5t-149.5 43.5h-189z" />
<glyph unicode="&#xdf;" horiz-adv-x="1441" d="M70 0l237 1094q36 167 184 266t362 99q232 0 378.5 -108.5t146.5 -281.5q0 -127 -81 -221.5t-206 -117.5l-4 -20q130 -28 200.5 -105t70.5 -195q0 -195 -139.5 -310.5t-369.5 -115.5q-161 0 -276 42l59 266q70 -35 159 -35q95 0 154 48.5t59 127.5q0 71 -59.5 108.5 t-164.5 37.5h-77l58 275h72q81 0 136.5 46t55.5 118q0 71 -50 115t-130 44q-82 0 -138 -52.5t-77 -151.5l-207 -973h-353z" />
<glyph unicode="&#xe0;" horiz-adv-x="1241" d="M71 286q0 171 134.5 271.5t370.5 107.5l257 7l14 67q5 30 5 35q0 48 -43 76.5t-114 28.5q-126 0 -167 -83h-324q34 157 174.5 250t341.5 93q214 0 346 -92t132 -242q0 -47 -9 -90l-153 -715h-343l28 134h-19q-43 -69 -126 -110t-178 -41q-140 0 -233.5 86.5t-93.5 216.5z M414 337q0 -48 40 -78t103 -30q78 0 139 45.5t76 113.5l18 83l-197 -6q-83 -3 -131 -37.5t-48 -90.5zM446 1647h344l169 -359h-299z" />
<glyph unicode="&#xe1;" horiz-adv-x="1241" d="M71 286q0 171 134.5 271.5t370.5 107.5l257 7l14 67q5 30 5 35q0 48 -43 76.5t-114 28.5q-126 0 -167 -83h-324q34 157 174.5 250t341.5 93q214 0 346 -92t132 -242q0 -47 -9 -90l-153 -715h-343l28 134h-19q-43 -69 -126 -110t-178 -41q-140 0 -233.5 86.5t-93.5 216.5z M414 337q0 -48 40 -78t103 -30q78 0 139 45.5t76 113.5l18 83l-197 -6q-83 -3 -131 -37.5t-48 -90.5zM651 1288l322 359h364l-367 -359h-319z" />
<glyph unicode="&#xe2;" horiz-adv-x="1241" d="M71 286q0 171 134.5 271.5t370.5 107.5l257 7l14 67q5 30 5 35q0 48 -43 76.5t-114 28.5q-126 0 -167 -83h-324q34 157 174.5 250t341.5 93q214 0 346 -92t132 -242q0 -47 -9 -90l-153 -715h-343l28 134h-19q-43 -69 -126 -110t-178 -41q-140 0 -233.5 86.5t-93.5 216.5z M305 1260l348 359h338l195 -359h-284l-90 202h-19l-177 -202h-311zM414 337q0 -48 40 -78t103 -30q78 0 139 45.5t76 113.5l18 83l-197 -6q-83 -3 -131 -37.5t-48 -90.5z" />
<glyph unicode="&#xe3;" horiz-adv-x="1241" d="M71 286q0 171 134.5 271.5t370.5 107.5l257 7l14 67q5 30 5 35q0 48 -43 76.5t-114 28.5q-126 0 -167 -83h-324q34 157 174.5 250t341.5 93q214 0 346 -92t132 -242q0 -47 -9 -90l-153 -715h-343l28 134h-19q-43 -69 -126 -110t-178 -41q-140 0 -233.5 86.5t-93.5 216.5z M368 1295q17 138 93 222.5t184 84.5q55 0 103.5 -24.5t77.5 -53.5t61.5 -53.5t57.5 -24.5q73 0 86 118h206q-17 -138 -93.5 -222.5t-184.5 -84.5q-55 0 -103.5 24.5t-77.5 54t-61.5 54t-57.5 24.5q-72 0 -86 -119h-205zM414 337q0 -48 40 -78t103 -30q78 0 139 45.5 t76 113.5l18 83l-197 -6q-83 -3 -131 -37.5t-48 -90.5z" />
<glyph unicode="&#xe4;" horiz-adv-x="1241" d="M71 286q0 171 134.5 271.5t370.5 107.5l257 7l14 67q5 30 5 35q0 48 -43 76.5t-114 28.5q-126 0 -167 -83h-324q34 157 174.5 250t341.5 93q214 0 346 -92t132 -242q0 -47 -9 -90l-153 -715h-343l28 134h-19q-43 -69 -126 -110t-178 -41q-140 0 -233.5 86.5t-93.5 216.5z M371 1424q0 72 48.5 118t124.5 46t124.5 -46t48.5 -118t-48.5 -118t-124.5 -46t-124.5 46t-48.5 118zM414 337q0 -48 40 -78t103 -30q78 0 139 45.5t76 113.5l18 83l-197 -6q-83 -3 -131 -37.5t-48 -90.5zM872 1424q0 72 48.5 118t124.5 46t125 -46t49 -118t-49 -118 t-125 -46t-124.5 46t-48.5 118z" />
<glyph unicode="&#xe5;" horiz-adv-x="1241" d="M71 286q0 171 134.5 271.5t370.5 107.5l257 7l14 67q5 30 5 35q0 48 -43 76.5t-114 28.5q-126 0 -167 -83h-324q34 157 174.5 250t341.5 93q214 0 346 -92t132 -242q0 -47 -9 -90l-153 -715h-343l28 134h-19q-43 -69 -126 -110t-178 -41q-140 0 -233.5 86.5t-93.5 216.5z M414 337q0 -48 40 -78t103 -30q78 0 139 45.5t76 113.5l18 83l-197 -6q-83 -3 -131 -37.5t-48 -90.5zM613 1505q0 106 71.5 174t181.5 68t181 -68t71 -174q0 -107 -71 -176t-181 -69t-181.5 69t-71.5 176zM769 1504q0 -43 27 -70t69 -27q43 0 70 27.5t27 69.5 q0 41 -27.5 68.5t-69.5 27.5q-42 -1 -69 -28t-27 -68z" />
<glyph unicode="&#xe6;" horiz-adv-x="1956" d="M73 292q0 178 131.5 277t374.5 106l257 7l13 57q5 17 5 35q0 48 -43 76.5t-114 28.5q-127 0 -166 -83h-324q35 162 171 252.5t335 90.5q112 0 202 -42t131 -109h19q68 73 160 112t198 39q204 0 341 -133t137 -340q0 -85 -20 -187h-764v-21q0 -110 58.5 -169.5 t153.5 -59.5q70 0 118.5 27.5t69.5 77.5h332q-41 -164 -186.5 -262t-353.5 -98q-122 0 -232.5 53t-155.5 134h-19q-57 -81 -169 -134t-246 -53q-179 0 -296.5 91.5t-117.5 226.5zM416 335q0 -49 40.5 -82t103.5 -33q76 0 138 49t76 119l18 83l-197 -6q-83 -3 -131 -37.5 t-48 -92.5zM1153 681h423q4 12 4 36q0 74 -50 122t-131 48q-88 0 -155 -56.5t-91 -149.5z" />
<glyph unicode="&#xe7;" horiz-adv-x="1249" d="M121 443q0 198 77 356t221.5 249t331.5 91q108 0 198.5 -33.5t149 -88.5t92 -122.5t36.5 -139.5v-12.5v-16v-13.5h-329q-1 73 -48 113t-121 40q-116 0 -187.5 -114.5t-71.5 -287.5q0 -108 50.5 -162.5t124.5 -54.5q73 0 125 39t74 113h331q-23 -165 -148 -282.5 t-323 -138.5l-58 -90q148 -29 148 -167q0 -100 -73.5 -159t-197.5 -59q-114 0 -192 35l31 142q64 -25 139 -25q85 0 85 52q0 57 -106 57h-59l20 126l61 95q-179 32 -280 153t-101 305z" />
<glyph unicode="&#xe8;" horiz-adv-x="1288" d="M124 456q0 305 171 494t445 189q216 0 355.5 -131t139.5 -342q0 -85 -20 -187h-765q-1 -4 -1 -21q0 -110 58.5 -169.5t153.5 -59.5q71 0 120 28t69 77h332q-41 -165 -186.5 -262.5t-356.5 -97.5q-234 0 -374.5 129.5t-140.5 352.5zM400 1647h344l169 -359h-299zM486 681 h423q3 18 3 36q0 74 -50 122t-131 48q-88 0 -155 -56.5t-90 -149.5z" />
<glyph unicode="&#xe9;" horiz-adv-x="1288" d="M124 456q0 305 171 494t445 189q216 0 355.5 -131t139.5 -342q0 -85 -20 -187h-765q-1 -4 -1 -21q0 -110 58.5 -169.5t153.5 -59.5q71 0 120 28t69 77h332q-41 -165 -186.5 -262.5t-356.5 -97.5q-234 0 -374.5 129.5t-140.5 352.5zM486 681h423q3 18 3 36q0 74 -50 122 t-131 48q-88 0 -155 -56.5t-90 -149.5zM605 1288l322 359h364l-367 -359h-319z" />
<glyph unicode="&#xea;" horiz-adv-x="1288" d="M124 456q0 305 171 494t445 189q216 0 355.5 -131t139.5 -342q0 -85 -20 -187h-765q-1 -4 -1 -21q0 -110 58.5 -169.5t153.5 -59.5q71 0 120 28t69 77h332q-41 -165 -186.5 -262.5t-356.5 -97.5q-234 0 -374.5 129.5t-140.5 352.5zM313 1260l348 359h338l195 -359h-284 l-90 202h-19l-177 -202h-311zM486 681h423q3 18 3 36q0 74 -50 122t-131 48q-88 0 -155 -56.5t-90 -149.5z" />
<glyph unicode="&#xeb;" horiz-adv-x="1288" d="M124 456q0 305 171 494t445 189q216 0 355.5 -131t139.5 -342q0 -85 -20 -187h-765q-1 -4 -1 -21q0 -110 58.5 -169.5t153.5 -59.5q71 0 120 28t69 77h332q-41 -165 -186.5 -262.5t-356.5 -97.5q-234 0 -374.5 129.5t-140.5 352.5zM379 1424q0 72 48.5 118t124.5 46 t124.5 -46t48.5 -118t-48.5 -118t-124.5 -46t-124.5 46t-48.5 118zM486 681h423q3 18 3 36q0 74 -50 122t-131 48q-88 0 -155 -56.5t-90 -149.5zM880 1424q0 72 48.5 118t124.5 46t125 -46t49 -118t-49 -118t-125 -46t-124.5 46t-48.5 118z" />
<glyph unicode="&#xec;" horiz-adv-x="643" d="M62 0l236 1113h354l-237 -1113h-353zM138 1647h344l169 -359h-299z" />
<glyph unicode="&#xed;" horiz-adv-x="643" d="M62 0l236 1113h354l-237 -1113h-353zM343 1288l322 359h364l-367 -359h-319z" />
<glyph unicode="&#xee;" horiz-adv-x="643" d="M51 1260l348 359h338l195 -359h-284l-90 202h-19l-177 -202h-311zM62 0l236 1113h354l-237 -1113h-353z" />
<glyph unicode="&#xef;" horiz-adv-x="643" d="M62 0l236 1113h354l-237 -1113h-353zM117 1424q0 72 48.5 118t124.5 46t124.5 -46t48.5 -118t-48.5 -118t-124.5 -46t-124.5 46t-48.5 118zM618 1424q0 72 48.5 118t124.5 46t125 -46t49 -118t-49 -118t-125 -46t-124.5 46t-48.5 118z" />
<glyph unicode="&#xf0;" horiz-adv-x="1361" d="M121 465q0 170 68 309.5t188.5 219t267.5 79.5q100 0 184.5 -39t120.5 -101l19 -2q-8 138 -97 286l-291 -89l-33 161l218 67q-73 82 -179 161h403q42 -39 68 -70l262 84l35 -161l-192 -60q158 -248 158 -534q0 -161 -43 -302q-71 -232 -237 -366t-385 -134 q-233 0 -384 139t-151 352zM487 470q0 -97 52 -154.5t139 -57.5q104 0 184 106t80 245q0 96 -53.5 154.5t-141.5 58.5q-104 0 -182 -106t-78 -246z" />
<glyph unicode="&#xf1;" horiz-adv-x="1331" d="M50 0l238 1113h343l-39 -181h19q56 93 144 145.5t201 52.5q150 0 238.5 -90t88.5 -232q0 -62 -15 -134l-143 -674h-352l132 619q8 39 8 76q0 68 -41.5 111.5t-114.5 43.5q-81 0 -138.5 -56.5t-76.5 -146.5l-139 -647h-353zM448 1295q17 138 93 222.5t184 84.5 q55 0 103.5 -24.5t77.5 -53.5t61.5 -53.5t57.5 -24.5q73 0 86 118h206q-17 -138 -93.5 -222.5t-184.5 -84.5q-55 0 -103.5 24.5t-77.5 54t-61.5 54t-57.5 24.5q-72 0 -86 -119h-205z" />
<glyph unicode="&#xf2;" horiz-adv-x="1331" d="M124 471q0 188 84.5 341t233.5 240t332 87q235 0 376 -136t141 -362q0 -141 -49.5 -264.5t-135 -212t-205.5 -139.5t-257 -51q-235 0 -377.5 136t-142.5 361zM424 1647h344l169 -359h-299zM491 474q0 -107 44.5 -167.5t122.5 -60.5q108 0 186 115t78 273q0 111 -43 173 t-121 62q-111 0 -189 -115.5t-78 -279.5z" />
<glyph unicode="&#xf3;" horiz-adv-x="1331" d="M124 471q0 188 84.5 341t233.5 240t332 87q235 0 376 -136t141 -362q0 -141 -49.5 -264.5t-135 -212t-205.5 -139.5t-257 -51q-235 0 -377.5 136t-142.5 361zM491 474q0 -107 44.5 -167.5t122.5 -60.5q108 0 186 115t78 273q0 111 -43 173t-121 62q-111 0 -189 -115.5 t-78 -279.5zM629 1288l322 359h364l-367 -359h-319z" />
<glyph unicode="&#xf4;" horiz-adv-x="1331" d="M124 471q0 188 84.5 341t233.5 240t332 87q235 0 376 -136t141 -362q0 -141 -49.5 -264.5t-135 -212t-205.5 -139.5t-257 -51q-235 0 -377.5 136t-142.5 361zM337 1260l348 359h338l195 -359h-284l-90 202h-19l-177 -202h-311zM491 474q0 -107 44.5 -167.5t122.5 -60.5 q108 0 186 115t78 273q0 111 -43 173t-121 62q-111 0 -189 -115.5t-78 -279.5z" />
<glyph unicode="&#xf5;" horiz-adv-x="1331" d="M124 471q0 188 84.5 341t233.5 240t332 87q235 0 376 -136t141 -362q0 -141 -49.5 -264.5t-135 -212t-205.5 -139.5t-257 -51q-235 0 -377.5 136t-142.5 361zM400 1295q17 138 93 222.5t184 84.5q55 0 103.5 -24.5t77.5 -53.5t61.5 -53.5t57.5 -24.5q73 0 86 118h206 q-17 -138 -93.5 -222.5t-184.5 -84.5q-55 0 -103.5 24.5t-77.5 54t-61.5 54t-57.5 24.5q-72 0 -86 -119h-205zM491 474q0 -107 44.5 -167.5t122.5 -60.5q108 0 186 115t78 273q0 111 -43 173t-121 62q-111 0 -189 -115.5t-78 -279.5z" />
<glyph unicode="&#xf6;" horiz-adv-x="1331" d="M124 471q0 188 84.5 341t233.5 240t332 87q235 0 376 -136t141 -362q0 -141 -49.5 -264.5t-135 -212t-205.5 -139.5t-257 -51q-235 0 -377.5 136t-142.5 361zM403 1424q0 72 48.5 118t124.5 46t124.5 -46t48.5 -118t-48.5 -118t-124.5 -46t-124.5 46t-48.5 118zM491 474 q0 -107 44.5 -167.5t122.5 -60.5q108 0 186 115t78 273q0 111 -43 173t-121 62q-111 0 -189 -115.5t-78 -279.5zM904 1424q0 72 48.5 118t124.5 46t125 -46t49 -118t-49 -118t-125 -46t-124.5 46t-48.5 118z" />
<glyph unicode="&#xf7;" d="M189 459l55 255h1113l-55 -255h-1113zM489 173q0 81 50 132.5t137 51.5q85 0 136 -49.5t51 -120.5q0 -81 -50 -132t-137 -51q-86 0 -136.5 49t-50.5 120zM662 984q0 81 50 132.5t137 51.5q85 0 135.5 -49.5t50.5 -120.5q0 -81 -50 -132t-136 -51t-136.5 49t-50.5 120z " />
<glyph unicode="&#xf8;" horiz-adv-x="1344" d="M124 471q0 188 84.5 341t233.5 240t332 87q158 0 276 -63l96 118l97 -57l-102 -125q150 -136 150 -371q0 -141 -49.5 -264.5t-135 -212t-205.5 -139.5t-257 -51q-169 0 -292 72l-109 -133l-90 61l112 137q-141 136 -141 360zM491 474q0 -44 7 -76l356 437q-40 34 -96 34 q-111 0 -189 -115.5t-78 -279.5zM550 289q43 -43 108 -43q108 0 186 115t78 273q0 53 -11 97z" />
<glyph unicode="&#xf9;" horiz-adv-x="1332" d="M121 300q0 54 15 141l141 672h355l-131 -615q-7 -35 -7 -73q0 -161 155 -161q83 0 137 54.5t75 151.5l137 643h354l-235 -1113h-344l37 175h-19q-112 -201 -325 -201q-155 0 -250 88t-95 238zM477 1647h344l169 -359h-299z" />
<glyph unicode="&#xfa;" horiz-adv-x="1332" d="M121 300q0 54 15 141l141 672h355l-131 -615q-7 -35 -7 -73q0 -161 155 -161q83 0 137 54.5t75 151.5l137 643h354l-235 -1113h-344l37 175h-19q-112 -201 -325 -201q-155 0 -250 88t-95 238zM682 1288l322 359h364l-367 -359h-319z" />
<glyph unicode="&#xfb;" horiz-adv-x="1332" d="M121 300q0 54 15 141l141 672h355l-131 -615q-7 -35 -7 -73q0 -161 155 -161q83 0 137 54.5t75 151.5l137 643h354l-235 -1113h-344l37 175h-19q-112 -201 -325 -201q-155 0 -250 88t-95 238zM390 1260l348 359h338l195 -359h-284l-90 202h-19l-177 -202h-311z" />
<glyph unicode="&#xfc;" horiz-adv-x="1332" d="M121 300q0 54 15 141l141 672h355l-131 -615q-7 -35 -7 -73q0 -161 155 -161q83 0 137 54.5t75 151.5l137 643h354l-235 -1113h-344l37 175h-19q-112 -201 -325 -201q-155 0 -250 88t-95 238zM456 1424q0 72 48.5 118t124.5 46t124.5 -46t48.5 -118t-48.5 -118 t-124.5 -46t-124.5 46t-48.5 118zM957 1424q0 72 48.5 118t124.5 46t125 -46t49 -118t-49 -118t-125 -46t-124.5 46t-48.5 118z" />
<glyph unicode="&#xfd;" horiz-adv-x="1258" d="M-24 -404l57 268q12 -3 70 -3q176 0 215 99l12 33l-127 1120h363l30 -809h19l370 809h377l-600 -1123q-113 -215 -262.5 -306t-382.5 -91q-129 0 -141 3zM646 1288l322 359h364l-367 -359h-319z" />
<glyph unicode="&#xfe;" horiz-adv-x="1378" d="M-20 -339l393 1847h354l-117 -550h19q54 80 138 126.5t190 46.5q167 0 271 -114.5t104 -309.5q0 -206 -73 -372t-200 -259t-283 -93q-118 0 -199.5 59.5t-108.5 157.5h-19l-115 -539h-354zM513 477q0 -100 51 -155.5t129 -55.5q113 0 192.5 110t79.5 271q0 100 -50 154.5 t-128 54.5q-112 0 -193 -113t-81 -266z" />
<glyph unicode="&#xff;" horiz-adv-x="1258" d="M-24 -404l57 268q12 -3 70 -3q176 0 215 99l12 33l-127 1120h363l30 -809h19l370 809h377l-600 -1123q-113 -215 -262.5 -306t-382.5 -91q-129 0 -141 3zM420 1424q0 72 48.5 118t124.5 46t124.5 -46t48.5 -118t-48.5 -118t-124.5 -46t-124.5 46t-48.5 118zM921 1424 q0 72 48.5 118t124.5 46t125 -46t49 -118t-49 -118t-125 -46t-124.5 46t-48.5 118z" />
<glyph unicode="&#x152;" horiz-adv-x="2305" d="M177 581q0 193 60 360.5t165 286t252.5 186.5t317.5 68q149 0 267.5 -58t183.5 -161l19 1l39 179h903l-63 -295h-621l-61 -288h584l-57 -270h-584l-64 -295h622l-62 -295h-904l18 87h-14q-51 -55 -150 -90.5t-207 -35.5q-287 0 -465.5 172t-178.5 448zM546 604 q0 -154 78 -246.5t207 -92.5q114 0 209.5 76.5t150.5 209t55 289.5q0 153 -77.5 245.5t-206.5 92.5q-113 0 -209 -76.5t-151.5 -209t-55.5 -288.5z" />
<glyph unicode="&#x153;" horiz-adv-x="2078" d="M124 469q0 189 84 342.5t231.5 240.5t329.5 87q114 0 210 -46t154 -128h19q152 174 376 174q218 0 356.5 -132t138.5 -341q0 -83 -20 -187h-765q0 -3 -0.5 -11.5t-0.5 -9.5q0 -106 57 -167.5t155 -61.5q70 0 119.5 27.5t70.5 77.5h332q-41 -166 -187.5 -263t-355.5 -97 q-115 0 -213.5 46t-159.5 128h-19q-143 -174 -393 -174q-236 0 -377.5 135t-141.5 360zM491 472q0 -106 44.5 -167t122.5 -61q108 0 186 115.5t78 274.5q0 111 -43 173t-121 62q-111 0 -189 -116t-78 -281zM1274 681h423q3 9 3 36q0 75 -50.5 122.5t-130.5 47.5 q-87 0 -154 -56t-91 -150z" />
<glyph unicode="&#x178;" horiz-adv-x="1507" d="M297 1443h383l159 -591h19l405 591h396l-700 -953l-103 -490h-368l105 496zM616 1745q0 72 48.5 118t124.5 46t124.5 -46t48.5 -118t-48.5 -118t-124.5 -46t-124.5 46t-48.5 118zM1117 1745q0 72 48.5 118t124.5 46t125 -46t49 -118t-49 -118t-125 -46t-124.5 46 t-48.5 118z" />
<glyph unicode="&#x2c6;" horiz-adv-x="1059" d="M274 1260l348 359h338l195 -359h-284l-90 202h-19l-177 -202h-311z" />
<glyph unicode="&#x2dc;" horiz-adv-x="1059" d="M322 1303q17 138 93 222.5t184 84.5q55 0 103.5 -24.5t77.5 -53.5t61.5 -53.5t57.5 -24.5q73 0 86 118h206q-17 -138 -93.5 -222.5t-184.5 -84.5q-55 0 -103.5 24.5t-77.5 54t-61.5 54t-57.5 24.5q-72 0 -86 -119h-205z" />
<glyph unicode="&#x2000;" horiz-adv-x="1015" />
<glyph unicode="&#x2001;" horiz-adv-x="2030" />
<glyph unicode="&#x2002;" horiz-adv-x="1015" />
<glyph unicode="&#x2003;" horiz-adv-x="2030" />
<glyph unicode="&#x2004;" horiz-adv-x="676" />
<glyph unicode="&#x2005;" horiz-adv-x="507" />
<glyph unicode="&#x2006;" horiz-adv-x="338" />
<glyph unicode="&#x2007;" horiz-adv-x="338" />
<glyph unicode="&#x2008;" horiz-adv-x="253" />
<glyph unicode="&#x2009;" horiz-adv-x="406" />
<glyph unicode="&#x200a;" horiz-adv-x="112" />
<glyph unicode="&#x2010;" horiz-adv-x="1006" d="M181 425l68 316h658l-68 -316h-658z" />
<glyph unicode="&#x2011;" horiz-adv-x="1006" d="M181 425l68 316h658l-68 -316h-658z" />
<glyph unicode="&#x2012;" horiz-adv-x="1006" d="M181 425l68 316h658l-68 -316h-658z" />
<glyph unicode="&#x2013;" horiz-adv-x="1078" d="M7 425l68 316h1078l-68 -316h-1078z" />
<glyph unicode="&#x2014;" horiz-adv-x="2048" d="M7 425l68 316h2048l-68 -316h-2048z" />
<glyph unicode="&#x2018;" horiz-adv-x="675" d="M197 804l337 639h244l-245 -639h-336z" />
<glyph unicode="&#x2019;" horiz-adv-x="675" d="M226 804l232 639h336l-325 -639h-243z" />
<glyph unicode="&#x201a;" horiz-adv-x="675" d="M-35 -400l234 646h336l-326 -646h-244z" />
<glyph unicode="&#x201c;" horiz-adv-x="1191" d="M192 795l331 648h260l-255 -648h-336zM704 795l318 648h260l-243 -648h-335z" />
<glyph unicode="&#x201d;" horiz-adv-x="1191" d="M220 795l242 648h336l-319 -648h-259zM719 795l255 648h335l-330 -648h-260z" />
<glyph unicode="&#x201e;" horiz-adv-x="1191" d="M-34 -400l234 646h336l-326 -646h-244zM465 -400l247 646h335l-338 -646h-244z" />
<glyph unicode="&#x2022;" horiz-adv-x="1032" d="M172 577q0 158 113 271.5t271 113.5t271 -113.5t113 -271.5t-113 -271t-271 -113t-271 113t-113 271z" />
<glyph unicode="&#x2026;" horiz-adv-x="1952" d="M126 150q0 86 55 142t147 56q91 0 146.5 -53.5t55.5 -129.5q0 -86 -55 -142t-147 -56q-91 0 -146.5 53.5t-55.5 129.5zM719 150q0 86 55 142t147 56q91 0 146.5 -53.5t55.5 -129.5q0 -86 -55 -142t-147 -56q-91 0 -146.5 53.5t-55.5 129.5zM1309 150q0 86 55 142t147 56 q91 0 146.5 -53.5t55.5 -129.5q0 -86 -55 -142t-147 -56q-91 0 -146.5 53.5t-55.5 129.5z" />
<glyph unicode="&#x202f;" horiz-adv-x="406" />
<glyph unicode="&#x2039;" horiz-adv-x="948" d="M173 563l2 8l412 408h332l-438 -424l-1 -8l256 -394h-303z" />
<glyph unicode="&#x203a;" horiz-adv-x="948" d="M101 153l438 424l1 8l-256 394h303l260 -409l-2 -8l-412 -409h-332z" />
<glyph unicode="&#x205f;" horiz-adv-x="507" />
<glyph unicode="&#x20ac;" d="M149 476l36 165l156 1q1 65 12 128h-141l37 170h146q87 245 296 388.5t505 143.5q86 0 186.5 -15t155.5 -36l-63 -294q-41 17 -116.5 28.5t-141.5 11.5q-152 0 -263 -59t-172 -168h539l-38 -170h-558q-8 -54 -8 -107v-20l539 3l-36 -170h-464q101 -207 465 -207 q42 0 79 4l-65 -297q-28 -4 -84 -4q-324 0 -535 134.5t-261 369.5h-206z" />
<glyph unicode="&#x2122;" horiz-adv-x="2112" d="M249 1205l55 238h800l-55 -238h-256l-150 -657h-288l150 657h-256zM1031 548l190 895h339l50 -418h13l231 418h351l-191 -895h-266l103 486h-12l-211 -376h-163l-52 376h-12l-104 -486h-266z" />
<glyph unicode="&#x25fc;" horiz-adv-x="1115" d="M0 0v1115h1115v-1115h-1115z" />
<glyph unicode="&#xfb01;" horiz-adv-x="1529" d="M140 835l56 263h176l28 133q31 152 133 221.5t284 69.5q133 0 220 -26l-50 -228q-39 11 -118 11q-109 0 -129 -96l-18 -85h227l-56 -263h-218l-178 -835h-355l178 835h-180zM948 0l236 1113h354l-237 -1113h-353zM1223 1393q0 71 54 117.5t146 46.5t145.5 -42t53.5 -109 q0 -72 -53.5 -118t-145.5 -46t-146 42t-54 109z" />
<glyph unicode="&#xfb02;" horiz-adv-x="1520" d="M140 835l56 263h176l28 133q31 152 133 221.5t284 69.5q133 0 220 -26l-50 -228q-39 11 -118 11q-109 0 -129 -96l-18 -85h227l-56 -263h-218l-178 -835h-355l178 835h-180zM943 0l325 1530h355l-326 -1530h-354z" />
</font>
</defs>
</svg>
