<svg viewBox="0 0 20 20" xmlns="http://www.w3.org/2000/svg" fill-rule="evenodd" clip-rule="evenodd" stroke-linejoin="round" stroke-miterlimit="1.414"><style>@-webkit-keyframes loading-spinner-animation{0%{opacity:1}100%{opacity:0}}@keyframes loading-spinner-animation{0%{opacity:1}100%{opacity:0}}path{fill:#6a717d}path:nth-of-type(1){-webkit-animation:loading-spinner-animation .5s linear infinite;animation:loading-spinner-animation .5s linear infinite;-webkit-animation-delay:-.5s;animation-delay:-.5s}path:nth-of-type(2){-webkit-animation:loading-spinner-animation .5s linear infinite;animation:loading-spinner-animation .5s linear infinite;-webkit-animation-delay:-.4583333333333333s;animation-delay:-.4583333333333333s}path:nth-of-type(3){-webkit-animation:loading-spinner-animation .5s linear infinite;animation:loading-spinner-animation .5s linear infinite;-webkit-animation-delay:-.4166666666666667s;animation-delay:-.4166666666666667s}path:nth-of-type(4){-webkit-animation:loading-spinner-animation .5s linear infinite;animation:loading-spinner-animation .5s linear infinite;-webkit-animation-delay:-375ms;animation-delay:-375ms}path:nth-of-type(5){-webkit-animation:loading-spinner-animation .5s linear infinite;animation:loading-spinner-animation .5s linear infinite;-webkit-animation-delay:-.3333333333333333s;animation-delay:-.3333333333333333s}path:nth-of-type(6){-webkit-animation:loading-spinner-animation .5s linear infinite;animation:loading-spinner-animation .5s linear infinite;-webkit-animation-delay:-.2916666666666667s;animation-delay:-.2916666666666667s}path:nth-of-type(7){-webkit-animation:loading-spinner-animation .5s linear infinite;animation:loading-spinner-animation .5s linear infinite;-webkit-animation-delay:-.25s;animation-delay:-.25s}path:nth-of-type(8){-webkit-animation:loading-spinner-animation .5s linear infinite;animation:loading-spinner-animation .5s linear infinite;-webkit-animation-delay:-.20833333333333334s;animation-delay:-.20833333333333334s}path:nth-of-type(9){-webkit-animation:loading-spinner-animation .5s linear infinite;animation:loading-spinner-animation .5s linear infinite;-webkit-animation-delay:-.16666666666666666s;animation-delay:-.16666666666666666s}path:nth-of-type(10){-webkit-animation:loading-spinner-animation .5s linear infinite;animation:loading-spinner-animation .5s linear infinite;-webkit-animation-delay:-125ms;animation-delay:-125ms}path:nth-of-type(11){-webkit-animation:loading-spinner-animation .5s linear infinite;animation:loading-spinner-animation .5s linear infinite;-webkit-animation-delay:-83.33333333333333ms;animation-delay:-83.33333333333333ms}path:nth-of-type(12){-webkit-animation:loading-spinner-animation .5s linear infinite;animation:loading-spinner-animation .5s linear infinite;-webkit-animation-delay:-41.666666666666664ms;animation-delay:-41.666666666666664ms}</style><path d="M10 0c-.6 0-1 .4-1 1v3c0 .6.4 1 1 1s1-.4 1-1V1c0-.6-.4-1-1-1z"/><path d="M12.5 5.7c.5.3 1.1.1 1.4-.4l1.5-2.6c.3-.5.1-1.1-.4-1.4-.5-.3-1.1-.1-1.4.4l-1.5 2.6c-.2.5-.1 1.1.4 1.4z"/><path d="M14.3 7.5c.3.5.9.6 1.4.4l2.6-1.5c.5-.3.6-.9.4-1.4-.3-.5-.9-.6-1.4-.4l-2.6 1.5c-.5.3-.6.9-.4 1.4z"/><path d="M19 9h-3c-.6 0-1 .4-1 1s.4 1 1 1h3c.6 0 1-.4 1-1s-.4-1-1-1z"/><path d="M18.3 13.6l-2.6-1.5c-.5-.3-1.1-.1-1.4.4-.3.5-.1 1.1.4 1.4l2.6 1.5c.5.3 1.1.1 1.4-.4.2-.5.1-1.1-.4-1.4z"/><path d="M13.9 14.7c-.3-.5-.9-.6-1.4-.4-.5.2-.6.9-.4 1.4l1.5 2.6c.3.5.9.6 1.4.4.5-.3.6-.9.4-1.4l-1.5-2.6z"/><path d="M10 15c-.6 0-1 .4-1 1v3c0 .6.4 1 1 1s1-.4 1-1v-3c0-.6-.4-1-1-1z"/><path d="M7.5 14.3c-.5-.3-1.1-.1-1.4.4l-1.5 2.6c-.3.5-.1 1.1.4 1.4.5.3 1.1.1 1.4-.4l1.5-2.6c.2-.5.1-1.1-.4-1.4z"/><path d="M5.7 12.5c-.3-.5-.9-.6-1.4-.4l-2.6 1.5c-.5.3-.6.9-.4 1.4.3.5.9.6 1.4.4l2.6-1.5c.5-.3.6-.9.4-1.4z"/><path d="M5 10c0-.6-.4-1-1-1H1c-.6 0-1 .4-1 1s.4 1 1 1h3c.6 0 1-.4 1-1z"/><path d="M1.7 6.4l2.6 1.5c.5.2 1.1.1 1.4-.4.3-.5.1-1.1-.4-1.4L2.7 4.6c-.5-.2-1.1-.1-1.4.4-.2.5-.1 1.1.4 1.4z"/><path d="M6.4 1.7c-.3-.5-.9-.6-1.4-.4-.5.3-.6.9-.4 1.4l1.5 2.6c.3.5.9.6 1.4.4.5-.2.6-.9.4-1.4L6.4 1.7z"/></svg>
